<?xml version="1.0" encoding="utf-8"?>
<!-- Generator: Adobe Illustrator 18.1.1, SVG Export Plug-In . SVG Version: 6.00 Build 0)  -->
<svg version="1.1" id="Layer_1" xmlns="http://www.w3.org/2000/svg" xmlns:xlink="http://www.w3.org/1999/xlink" x="0px" y="0px"
	 viewBox="246 174.9 356.2 97" enable-background="new 246 174.9 356.2 97" xml:space="preserve">
<text transform="matrix(1 0 0 1 331.7968 235.2276)" fill="#383838" font-family="'Calibri'" font-size="32.5643" letter-spacing="10">TIMESHARE </text>
<g>
	<circle fill="#383838" stroke="#383838" stroke-width="10" stroke-miterlimit="10" cx="289.2" cy="224.3" r="22.6"/>
	<g>
		<g>
			<path fill="#F4EFEF" d="M286.6,203.2C286.7,203.2,286.7,203.2,286.6,203.2c0.9,0.4,1.3,1.1,1.3,2c0,0.5-0.1,1-0.2,1.4
				c-0.1,0.6,0,1.2,0.6,1.7c-0.2,0.2-0.3,0.4-0.5,0.6c0.2,0,0.3,0.1,0.5,0.1c0.2,0,0.3,0.2,0.3,0.4c0,0.2,0,0.5,0,0.8
				c1.5-0.2,3,0,4.5,0.4c1.5,0.4,2.9,0.9,4,1.9c0.2-0.2,0.4-0.4,0.5-0.7c0.2-0.2,0.2-0.2,0.5-0.1c0,0,0.1,0,0.1,0c0,0,0,0,0,0
				c-0.1-0.2-0.1-0.4-0.2-0.7c0.1-0.1,0.2-0.2,0.4-0.2c0.6-0.3,1-0.8,1.2-1.4c0.1-0.2,0.2-0.4,0.3-0.6c0.3-0.7,1.3-1.3,2.4-1.1
				c0,0,0.1,0.1,0.1,0.1c0.4,0.7,0.3,1.5-0.3,2.1c-0.2,0.2-0.5,0.4-0.7,0.6c-0.2,0.1-0.4,0.3-0.5,0.4c-0.5,0.4-0.8,0.8-0.8,1.6
				c-0.3,0-0.5,0-0.8,0c0.1,0.2,0.2,0.3,0.4,0.5c-0.1,0.1-0.2,0.3-0.3,0.4c-0.1,0.1-0.2,0.3-0.3,0.4c2.2,2.1,3.7,4.6,4.4,7.6
				c0.3,0,0.6-0.1,0.9-0.1c0.3,0,0.3,0,0.3,0.2c0,0,0,0.1,0,0.1c0.2-0.2,0.3-0.4,0.3-0.7c0.2,0,0.3,0.1,0.5,0.1
				c0.6,0.2,1.2,0.2,1.8-0.1c0.3-0.1,0.6-0.3,0.9-0.3c0.8-0.2,1.7,0.1,2.2,0.8c0,0,0.1,0.1,0.1,0.1c0,0,0,0,0,0
				c-0.1,0.3-0.3,0.6-0.5,0.9c-0.5,0.4-1,0.5-1.6,0.5c-0.4,0-0.7-0.1-1.1-0.1c-0.7-0.1-1.3,0-1.8,0.5c-0.2-0.2-0.4-0.4-0.6-0.5
				c0,0.2-0.1,0.4-0.1,0.6c-0.3,0-0.5,0-0.8,0.1c-0.1,0-0.2,0-0.2,0.2c0.1,2.9-0.7,5.6-2.3,8.1c-0.1,0.1-0.1,0.2-0.1,0.2
				c0.3,0.2,0.5,0.4,0.7,0.6c0.2,0.2,0.2,0.2,0.1,0.4c0,0,0,0.1-0.1,0.1c0.3,0,0.5-0.1,0.7-0.2c0.1,0.2,0.2,0.3,0.3,0.5
				c0.3,0.5,0.7,0.9,1.3,1.1c0.2,0.1,0.4,0.1,0.6,0.2c0.5,0.2,0.9,0.6,1.1,1.1c0.2,0.4,0.2,0.7,0.2,1.1c0,0.2-0.1,0.3-0.3,0.4
				c-0.7,0.3-1.4,0.1-2-0.4c-0.2-0.2-0.4-0.5-0.6-0.7c-0.1-0.1-0.2-0.3-0.3-0.4c-0.4-0.5-0.9-0.9-1.7-0.9c0-0.3,0-0.5-0.1-0.8
				c-0.2,0.1-0.4,0.3-0.5,0.4c-0.2-0.1-0.3-0.1-0.5-0.3c-0.1-0.1-0.2-0.3-0.4-0.4c-2.1,2.3-4.7,3.7-7.7,4.4c0,0.3,0.1,0.7,0.1,1
				c0,0.2,0,0.3-0.2,0.3c-0.1,0-0.1,0-0.2,0.1c0.2,0.2,0.4,0.3,0.7,0.3c0,0.1,0,0.3-0.1,0.4c-0.2,0.7-0.2,1.3,0.2,1.9
				c0.3,0.5,0.4,1,0.3,1.5c-0.1,0.6-0.4,1.1-0.9,1.4c0,0-0.1,0.1-0.1,0.1c0,0,0,0,0,0c-0.6-0.2-1-0.5-1.3-1.2
				c-0.2-0.4-0.1-0.9-0.1-1.4c0-0.3,0.1-0.6,0.1-0.9c0.1-0.6,0-1.2-0.6-1.7c0.2-0.2,0.3-0.4,0.5-0.6c-0.2,0-0.4-0.1-0.6-0.1
				c0-0.3-0.1-0.6-0.1-1c0-0.1,0-0.1-0.2-0.2c-3.2,0-6.1-0.9-8.8-2.8c-0.3-0.2-0.6-0.5-1-0.7c0,0.1,0,0.1,0.1,0.1
				c0.3,0.2,0.5,0.5,0.8,0.7c0.1,0.1,0.2,0.2,0.2,0.3c0,0.1-0.1,0.2-0.1,0.3c0,0,0,0,0.1,0c0.1-0.1,0.2-0.2,0.3-0.3c0,0,0,0,0,0
				c0,0,0,0.1-0.1,0.1c-0.2,0.3-0.4,0.6-0.6,0.8c0,0-0.1,0-0.2,0c-0.1,0-0.2-0.1-0.3-0.1c0,0,0,0,0,0c0.1,0.2,0.2,0.4,0.2,0.7
				c-0.1,0.1-0.2,0.2-0.4,0.2c-0.6,0.3-1,0.8-1.2,1.4c-0.1,0.4-0.2,0.8-0.5,1.1c-0.6,0.6-1.3,0.9-2.1,0.7c0,0-0.1,0-0.1-0.1
				c-0.4-0.6-0.3-1.5,0.2-2c0.3-0.3,0.6-0.5,0.9-0.8c0.2-0.1,0.3-0.2,0.5-0.4c0.5-0.5,0.7-0.8,0.8-1.5c0.3,0,0.5,0,0.8,0
				c-0.1-0.1-0.2-0.3-0.3-0.4c-0.1-0.1,0-0.3,0-0.4c0.2-0.2,0.4-0.4,0.6-0.6c0.1,0.2,0,0.5,0.2,0.7c0-0.2,0-0.4,0-0.6
				c-1.3-1.2-2.4-2.5-3.2-4.2c-0.8-1.6-1.2-3.4-1.4-5.2c-0.1,0.2,0,1,0.1,1.1c0,0,0,0,0,0c-0.1-0.1-0.2-0.1-0.3-0.1c0,0,0,0,0,0
				c0.1,0.1,0.2,0.2,0.3,0.3c0,0,0,0,0,0c-0.1-0.1-0.2-0.1-0.2-0.2c0,0,0,0,0,0c0.1,0.1,0.1,0.2,0.2,0.2c0,0,0,0,0,0
				c-0.1-0.1-0.3-0.2-0.4-0.3c0,0.2,0,0.2,0.2,0.2c0.1,0,0.2,0.1,0.4,0.2c-0.1,0-0.2,0.1-0.4,0.1c-0.2,0-0.5,0.1-0.7,0.1
				c-0.1,0-0.2,0-0.3-0.2c0-0.1,0-0.1-0.1-0.2c0,0,0,0-0.1,0c-0.1,0.2-0.2,0.4-0.3,0.7c-0.1,0-0.3,0-0.4-0.1
				c-0.4-0.1-0.7-0.2-1.1-0.1c-0.1,0-0.1,0-0.2,0c0,0.1,0,0.1,0.1,0.2c-0.2-0.2-0.3-0.1-0.5,0c-0.2,0.1-0.5,0.2-0.7,0.3
				c-0.9,0.3-1.8,0-2.4-0.8c0,0-0.1-0.1-0.1-0.1c0,0,0-0.1,0-0.1c0,0,0,0,0.1-0.1c0.3-0.8,1-1.3,2-1.2c0.4,0,0.7,0.1,1.1,0.1
				c0.7,0.1,1.4,0.1,1.9-0.5c0.2,0.2,0.4,0.3,0.6,0.5c0-0.2,0.1-0.4,0.1-0.6c0.4-0.1,0.7-0.1,1.1-0.1c0,0,0,0,0,0.1
				c-0.1,0-0.3,0-0.4,0.1c0,0,0,0,0,0.1c0.2,0,0.4,0.1,0.6,0.2c-0.1-1.6,0.1-3.1,0.4-4.6c0.4-1.5,1-2.9,1.8-4.1
				c-0.3-0.3-0.7-0.5-1-0.8c0,0,0-0.1,0-0.2c0-0.1,0.1-0.2,0.1-0.3c0,0,0,0,0-0.1c-0.2,0.1-0.4,0.2-0.7,0.2
				c-0.1-0.1-0.2-0.2-0.2-0.4c-0.3-0.6-0.7-1-1.4-1.2c-0.2-0.1-0.4-0.1-0.5-0.2c-0.9-0.3-1.5-1.4-1.2-2.4c0,0,0.1-0.1,0.1-0.1
				c0.8-0.4,1.6-0.2,2.2,0.4c0.2,0.2,0.4,0.5,0.6,0.7c0.1,0.2,0.3,0.4,0.4,0.6c0.4,0.5,0.9,0.8,1.5,0.7c0,0.3,0,0.5,0,0.8
				c0.2-0.1,0.3-0.2,0.4-0.3c0,0,0.1,0,0.1,0c0.3,0.2,0.5,0.4,0.7,0.6c0,0,0,0.1,0,0.1c0,0-0.1,0-0.1-0.1c-0.2-0.2-0.4-0.3-0.6-0.5
				c-0.1-0.1-0.1-0.1-0.2,0c-0.1,0.1-0.3,0.2-0.4,0.3c0.1,0,0.1,0.1,0.1,0.1c0.1-0.1,0.2-0.2,0.3-0.2c0.1,0.1,0.1,0.2,0.1,0.3
				c0,0,0,0,0.1,0c0-0.1,0-0.2,0-0.3c0,0,0,0,0,0c0.2,0.1,0.3,0.3,0.4,0.4c0,0-0.1,0.1-0.1,0.1c0.1,0,0.1,0.1,0.2,0.1c0,0,0,0,0,0.1
				c0,0,0.1,0,0.1-0.1c1.4-1.6,3.1-2.8,5.1-3.7c0.8-0.3,1.7-0.6,2.5-0.8c0.1,0,0.2-0.1,0.1-0.2c-0.1-0.3-0.1-0.7-0.2-1
				c0-0.1,0-0.2,0.1-0.2c0.1,0,0.2,0,0.2-0.1c0,0,0,0,0-0.1c-0.2-0.1-0.4-0.2-0.7-0.3c0-0.1,0-0.3,0.1-0.5c0.2-0.6,0.2-1.2-0.1-1.8
				c-0.1-0.3-0.3-0.6-0.3-0.9c-0.2-0.8,0.2-1.7,0.9-2.2c0,0,0.1-0.1,0.1-0.1C286.6,203.2,286.6,203.2,286.6,203.2z M282.4,231.7
				c0,0.2,0,0.3,0.1,0.4c0,0,0.1,0,0.1,0C282.5,231.9,282.5,231.8,282.4,231.7c0-0.1,0-0.3-0.1-0.4
				C282.2,231.4,282.3,231.6,282.4,231.7z M287,204c0,0.1-0.1,0.2,0.1,0.3c0-0.1,0-0.2,0-0.3C287.1,204,287,204,287,204
				c0-0.1,0-0.2-0.1-0.3c-0.1,0.1-0.1,0.2-0.2,0.2c0-0.1,0.1-0.1,0.1-0.2c-0.1-0.1-0.2-0.2-0.2-0.3c0,0,0,0,0,0
				c0.1,0.1,0.2,0.2,0.3,0.2c0,0,0,0,0.1,0c0,0,0-0.1,0-0.1c-0.1,0-0.2-0.2-0.4-0.1c-0.1,0.1-0.2,0.3-0.3,0.4c0,0,0-0.1,0-0.1
				c-0.3,0.3-0.4,0.6-0.5,1c-0.1,0.5,0,0.9,0.2,1.3c0.1,0.3,0.2,0.5,0.3,0.8c0.2,0.4,0.2,0.8,0,1.2c-0.1,0.2-0.1,0.3-0.2,0.5
				c0.4-0.2,0.6-0.5,0.5-0.9c0,0.1-0.1,0.3-0.2,0.4c-0.1,0.1-0.1,0.2-0.2,0.3c0.1-0.4,0.2-0.9,0.3-1.3c0,0,0-0.1,0.1-0.1
				c0.3-0.4,0.3-0.8,0.4-1.2c0,0-0.1,0.1-0.1,0.2l0,0c0.1-0.2,0.2-0.3,0.3-0.5c0,0,0,0-0.1,0c-0.1,0.1-0.2,0.3-0.3,0.4c0,0,0,0,0,0
				c0.1-0.2,0.3-0.4,0.4-0.6c0.1-0.2,0-0.4-0.1-0.7c-0.2,0.3-0.3,0.5-0.5,0.8c0.1-0.3,0.2-0.5,0.4-0.7c0.1-0.1,0.1-0.2,0-0.3
				c-0.2,0.3-0.3,0.5-0.4,0.8c0.1-0.3,0.2-0.5,0.4-0.7c0.1-0.1,0.1-0.2,0-0.3C286.9,204,286.9,204,287,204z M287.2,204.5
				c0-0.1,0-0.2,0-0.3C287.1,204.3,287.1,204.4,287.2,204.5c0,0.1,0,0.2,0,0.4C287.4,204.8,287.3,204.6,287.2,204.5
				C287.3,204.5,287.3,204.5,287.2,204.5z M303.7,221.7c0.2,0,0.2,0,0.1-0.3C303.6,221.4,303.6,221.4,303.7,221.7c0,0.1,0,0.2,0,0.2
				c0,0,0.1,0,0.2,0c0-0.1,0-0.1,0-0.2C303.8,221.7,303.7,221.7,303.7,221.7z M297.7,211.6c-0.2,0.2-0.2,0.2-0.1,0.4
				C297.8,211.9,297.8,211.8,297.7,211.6c0,0,0.1,0.1,0.2,0.1c0,0,0.1-0.1,0.1-0.1c-0.1-0.1-0.1-0.1-0.2-0.2
				C297.8,211.6,297.7,211.6,297.7,211.6z M282.8,231.1c0,0.1,0.1,0.2,0.1,0.4c0.2-0.2,0.2-0.4,0-0.5c0.1-0.1,0-0.2-0.1-0.2
				C282.6,230.9,282.7,231,282.8,231.1z M291.8,220c-0.1-0.1-0.1-0.1-0.2-0.2c-0.1,0.2-0.3,0.5-0.4,0.7c0,0,0,0,0,0.1
				c0.1,0,0.1,0,0.2-0.1C291.6,220.3,291.7,220.2,291.8,220c-0.1,0.2-0.3,0.4-0.4,0.6c0.1,0,0.2,0.1,0.2,0.1
				c0.2-0.2,0.2-0.2,0.4-0.1c0.1-0.1,0.2-0.2,0.3-0.3C292.2,220.2,292,220.1,291.8,220z M280.4,236.5c0-0.2,0-0.3-0.1-0.4
				C280.2,236.2,280.3,236.3,280.4,236.5L280.4,236.5L280.4,236.5c-0.1,0-0.2,0-0.2-0.1c0,0-0.1-0.1-0.1-0.1c0,0,0,0.1,0,0.1
				c-0.1-0.1-0.2-0.3-0.3-0.4c0,0.1-0.1,0.1-0.1,0.2c-0.1-0.1,0-0.4-0.2-0.4c0,0.1,0,0.2,0,0.3c0,0.1,0.1,0.1,0.2,0.2
				c0,0,0,0.1,0,0.1c0.3,0.2,0.6,0.5,0.9,0.7c0.1-0.2,0.2-0.3,0.2-0.4c-0.1-0.1-0.2-0.2-0.3-0.2
				C280.5,236.3,280.5,236.4,280.4,236.5z M293.5,218.1c-0.1-0.1-0.2-0.1-0.3-0.2c-0.3,0.5-0.7,0.9-0.9,1.5c0.1-0.2,0.3-0.3,0.4-0.5
				c0.2-0.2,0.4-0.5,0.7-0.7c-0.4,0.5-0.7,0.9-1.1,1.4c0,0,0,0,0,0c0.5-0.5,1-0.9,1.4-1.4c0,0,0,0,0-0.1
				C293.7,218.1,293.6,218.1,293.5,218.1z M301.8,208c-0.1,0.4-0.1,0.7-0.2,1.1c0.2-0.3,0.3-0.6,0.3-1C302,208,301.9,208,301.8,208
				c0.1-0.1,0.1-0.3,0.2-0.4c-0.5,0-1,0-1.4,0.3c-0.1,0.1-0.2,0.1-0.1,0.3c0,0.3,0.1,0.5,0.1,0.8c0,0.2,0.1,0.4,0.1,0.7
				c0.1-0.1,0.1-0.1,0.1-0.2c0-0.2-0.1-0.5-0.1-0.7c0-0.2,0-0.5-0.1-0.7c0,0,0,0,0.1,0c0.1,0.5,0.1,0.9,0.2,1.4
				c0.2-0.1,0.2-0.1,0.2-0.3c-0.1-0.4-0.1-0.8-0.1-1.3c0,0,0,0,0,0c0.1,0.4,0.1,0.9,0.2,1.3c0,0,0,0,0.1,0c0-0.1,0-0.1,0-0.2
				c0-0.3,0-0.6-0.1-0.9c0,0,0,0,0.1,0c0,0.3,0.1,0.6,0.1,0.9c0.1-0.2,0.2-0.3,0.2-0.5c-0.1-0.2-0.1-0.4-0.1-0.6c0-0.1,0-0.1,0-0.2
				c0,0,0,0,0.1,0c0.1,0.2,0.1,0.4,0.2,0.6c0,0,0,0,0,0c0-0.2,0-0.4,0.1-0.6c0,0,0,0,0,0C301.7,207.9,301.8,208,301.8,208
				C301.8,208.1,301.8,208,301.8,208z M281.7,225.4c-0.3,0-0.7,0.1-1,0.1c0.3,0,0.6,0,1,0c0.4,0,0.8,0,1.1,0c0.4,0,0.7-0.2,1.1-0.2
				c0.1,0,0.1,0,0.2,0c0,0,0,0,0,0.1c-0.3,0.2-0.5,0.3-0.8,0.5c0.4-0.1,0.7-0.3,1.1-0.4c0,0,0-0.1,0-0.1c0-0.2-0.1-0.4-0.1-0.6
				c0-0.1-0.1-0.1-0.1-0.2c-0.9-0.3-1.8-0.3-2.8-0.1c-0.2,0.1-0.5,0.2-0.7,0.3c0,0,0,0,0,0.1c0.5-0.2,1-0.3,1.5-0.3
				c-0.3,0.1-0.6,0.1-0.9,0.2c0,0,0,0,0,0c0,0,0.1,0,0.2,0c-0.1,0.1-0.2,0.1-0.2,0.1c0,0,0,0,0,0c0.9-0.1,1.9-0.3,2.9-0.4
				c0,0,0,0.1,0,0.1c-0.5,0.1-1,0.1-1.5,0.2c-0.5,0.1-1,0.1-1.5,0.2c0,0,0,0,0,0.1c0.2,0,0.3,0,0.5,0c0,0,0,0,0,0.1
				c-0.2,0-0.3,0-0.5,0.1c0,0,0,0,0,0.1c0.4,0.1,0.7,0,1,0C282.1,225.3,281.9,225.4,281.7,225.4L281.7,225.4z M285.2,220.9
				L285.2,220.9C285.2,220.9,285.2,220.9,285.2,220.9C285.2,220.9,285.2,220.9,285.2,220.9c0.1-0.2,0.3-0.2,0.5-0.3
				c-0.3-0.6-0.6-1.1-1.1-1.5c-0.6-0.5-1.4-0.8-2.1-0.9c0,0-0.1,0-0.2,0.1c-0.2,0.2-0.3,0.4-0.5,0.5c0,0-0.1,0.1-0.1,0.1
				c0.1,0.3,0.3,0.5,0.5,0.8c0,0,0,0,0,0c-0.1-0.2-0.1-0.4-0.2-0.5c0.2,0.3,0.4,0.6,0.6,0.9c0.3,0.3,0.7,0.6,0.9,0.6
				c-0.1-0.1-0.2-0.2-0.3-0.3c-0.1-0.1-0.2-0.2-0.2-0.3c0,0,0,0,0,0c0.1,0.1,0.2,0.2,0.3,0.3c0,0,0,0,0,0c-0.1-0.1-0.1-0.2-0.2-0.3
				c-0.1-0.1-0.1-0.2-0.2-0.3c0.5,0.6,1.1,1,1.8,1.3c-0.5-0.3-0.9-0.6-1.1-1c0.2,0.2,0.4,0.4,0.6,0.6
				C284.6,220.7,284.8,220.9,285.2,220.9z M297.5,217.7c0.2,0.2,0.3,0.4,0.5,0.6c0,0.1,0.1,0.1,0.1,0.2c0.8,1.2,1.3,2.5,1.5,4
				c0.2,1.1,0.2,2.3,0,3.4c0,0.1,0,0.1,0,0.2c0,0,0,0,0.1,0c0.3-1.4,0.3-2.8,0.1-4.2c0,0.2,0.1,0.5,0.1,0.7c0.1-0.5-0.2-1-0.3-1.5
				c0,0,0,0-0.1,0c0,0.2,0,0.3,0.1,0.5c0,0,0,0,0,0c-0.2-0.6-0.3-1.1-0.5-1.7c0,0,0,0,0.1,0c-0.1-0.3-0.2-0.6-0.3-0.9
				c-0.1-0.3-0.2-0.5-0.5-0.7c-0.2-0.1-0.3-0.4-0.4-0.6c-0.1-0.1-0.1-0.2-0.1-0.3c-0.5-0.6-1-1.2-1.6-1.6c-0.8-0.6-1.5-1.2-2.5-1.5
				c-0.4-0.1-0.9-0.3-1.3-0.4c-0.2,0-0.3-0.1-0.5-0.2c0,0,0,0,0,0c0.2,0.1,0.5,0.1,0.7,0.2c-0.4-0.2-1.5-0.5-1.7-0.5
				c0.1,0,0.1,0.1,0.2,0.1c0,0,0,0,0,0c-0.3,0-0.5-0.1-0.8-0.2c0.1,0,0.1,0,0.2-0.1c-0.3-0.1-0.5-0.1-0.8-0.2c-1-0.1-2.1,0-3.1,0.2
				c-1.8,0.4-3.3,1.2-4.7,2.4c0,0-0.1,0.1-0.1,0.2c-0.1,0.1-0.2,0.2-0.2,0.3c0,0,0,0,0,0c0,0,0-0.1,0-0.1c-1.1,1-2.9,3.4-3.2,6.6
				c-0.1,0.9,0.1,3.3,0.3,3.6c-0.2-1-0.3-2-0.2-3c0.1-1,0.2-2,0.5-3c0,0.1,0,0.2,0,0.2c-0.4,1.8-0.5,3.7-0.2,5.5
				c0.1,0.8,0.4,1.5,0.8,2.2c-1.2-2.9-1.2-5.9,0-8.8c-0.1,0.2-0.2,0.4-0.3,0.6c0.2-0.7,0.9-1.9,1.1-2.1c0,0,0,0.1,0,0.1
				c0.1-0.2,0.3-0.4,0.4-0.5c0.1-0.2,0.3-0.4,0.4-0.6l0,0c0.3-0.3,0.7-0.6,1-0.9c0.3-0.3,0.6-0.6,0.9-0.8c0.5-0.4,1-0.7,1.6-1
				c0.7-0.4,1.8-0.7,2.4-0.7c-0.6,0.1-1.7,0.4-2,0.7c0.1,0,0.1,0,0.1,0c1.2-0.5,2.4-0.7,3.5-0.8c0.6,0,1.2,0,1.7,0
				c2,0.2,3.9,1,5.5,2.2l0,0c0.3,0.3,0.6,0.5,0.9,0.8C297,217,297.2,217.3,297.5,217.7z M285.4,227.5
				C285.3,227.5,285.3,227.5,285.4,227.5c0.1-0.3,0.4-0.6,0.6-1c-0.1-0.2-0.2-0.4-0.3-0.6c-0.1-0.2-0.1-0.2-0.3-0.2
				c-0.3,0.1-0.5,0.1-0.8,0.1c0,0,0,0,0,0c0,0,0.1-0.1,0.2-0.1c-0.1,0-0.1,0-0.2,0c0-0.1,0-0.1,0-0.2c-0.6,0.5-1.3,0.9-2.1,1
				c-0.8,0.1-1.5-0.1-2.2-0.6c0,0.4,0,0.4-0.4,0.5c-0.1,0-0.1,0-0.1,0c-0.1,0-0.3,0-0.4,0.1c0.5,1.9,1.4,3.6,2.8,5
				c0.3-0.3,0.6-0.6,0.9-0.9c0.1,0.1,0.2,0.1,0.2,0.2c0.5-1.4,1.1-2.5,2.6-3C285.5,227.7,285.4,227.6,285.4,227.5
				c0.1,0,0.1,0,0.2,0.1c0.2,0.1,0.3,0.3,0.5,0.4c0.1,0.1,0.3,0.2,0.4,0.3c0,0,0,0,0,0c-0.3-0.2-0.6-0.5-0.8-0.7c0,0,0,0,0,0
				c0,0,0.1,0,0.1,0.1c0.1-0.2-0.1-0.2-0.2-0.3C285.5,227.3,285.4,227.4,285.4,227.5z M286.7,220.9c0,0-0.1-0.1-0.1-0.1
				c-0.2-0.1-0.4-0.2-0.6-0.4c0,0-0.1,0.1-0.1,0.1c0.1,0.1,0.2,0.2,0.3,0.3c0.1,0.1,0.2,0.2,0.4,0.1
				C286.6,220.9,286.6,220.9,286.7,220.9c0,0.1,0,0.1,0,0.1c0.3-0.2,0.6-0.4,0.9-0.5c0,0,0.1-0.1,0.1-0.1c0-0.4-0.1-0.7-0.1-1.1
				c0.1,0,0.2-0.1,0.3-0.1c-0.8-1.3-1.1-2.6-0.5-4c-0.1,0-0.1,0-0.2,0c-0.3,0-0.3,0-0.3-0.2c0-0.3-0.1-0.5-0.2-0.8
				c-1.1,0.1-4.3,1.8-5.1,2.9c0.1,0.1,0.2,0.1,0.3,0.2c0,0,0,0,0,0c-0.1-0.1-0.1-0.1-0.2-0.2c0,0,0,0,0,0c0.3,0.2,0.6,0.3,0.8,0.5
				c-0.1,0.2-0.1,0.4-0.2,0.6c0.8,0,1.4,0.3,2,0.7c0.6,0.5,1,1,1.3,1.7c0.2-0.3,0.2-0.3,0.5-0.1c0.2,0.1,0.3,0.3,0.4,0.4
				c0,0,0.1,0.1,0.2,0.2C286.8,220.9,286.7,220.9,286.7,220.9z M290.8,220.5c0.2,0.1,0.3,0.1,0.4-0.1c0.1-0.2,0.2-0.4,0.4-0.6
				c0,0,0-0.1,0-0.1c0,0,0,0,0,0c0,0-0.1,0-0.1,0.1C291.3,220,291,220.2,290.8,220.5c0-0.3,0.2-0.4,0.4-0.6c0.2-0.2,0.3-0.3,0.6-0.1
				c0,0,0-0.1,0-0.1c0.4-1.2,1.1-2,2.1-2.7c0.1-0.1,0.2-0.2,0.4-0.3c-0.1-0.1-0.2-0.2-0.4-0.4c0.2-0.3,0.4-0.6,0.7-0.9
				c-1.7-1-3.6-1.6-5.6-1.5c0,0.3,0.1,0.6,0.1,1c0,0.1,0,0.2-0.1,0.4c0.7,1.2,0.7,2.5,0.3,3.9c0.1,0,0.2,0,0.3,0c0,0,0,0,0,0.1
				c0.1,0.3,0.1,0.6,0.2,0.9c0,0.1,0.1,0.1,0.1,0.2C290.2,220.3,290.5,220.4,290.8,220.5z M292,222c0,0.1,0,0.1,0.1,0.2
				c0.3,0.6,0.5,1.2,0.6,1.8c0,0.1,0,0.2,0,0.3c0.1-0.4,0-0.9-0.1-1.3C292.4,222.8,292.3,222.4,292,222c0.1,0.1,0.2,0.1,0.3,0.2
				c0.1,0.1,0.1,0.1,0.2,0.2c0,0.1,0.1,0.1,0.1,0.2c0,0,0,0,0,0c-0.2-0.3-0.4-0.6-0.5-0.9c0,0,0,0,0,0c0.1,0.2,0.3,0.3,0.4,0.5
				c0,0,0,0,0,0c0.5,1,0.7,2,0.3,3c0,0,0,0,0,0c0.1-0.2,0.2-0.4,0.2-0.6c0-0.4,0-0.8,0-1.3c-0.1-0.5-0.2-0.9-0.5-1.3
				c0,0-0.1-0.1-0.1-0.2c-1.3-1.9-3.7-2.2-5.5-0.9c-0.4,0.3-0.6,0.6-0.9,1c-0.2,0.2-0.3,0.4-0.4,0.7c0.2,0,0.2-0.3,0.4-0.3
				c-0.2,0.4-0.4,0.7-0.4,1.2c0-0.1,0.1-0.2,0.1-0.3c-0.1,1.2,0.2,2.3,1.1,3.3c0-0.1,0-0.3,0-0.3c0-0.1-0.1-0.2-0.2-0.3
				c-0.6-0.8-0.8-1.7-0.5-2.7c0.1-0.3,0.2-0.6,0.3-0.8c0,0,0,0,0,0c-0.3,0.9-0.3,1.6-0.2,2.2c0.4,2.1,2.5,3,4.1,2.5
				c1.9-0.6,2.9-2.7,2-4.6c-0.6-1.3-2-2-3.3-1.8c-0.8,0.1-1.5,0.5-2.1,1.1c0,0-0.1,0.1-0.2,0.1c0,0,0,0,0,0c0.1-0.2,0.3-0.3,0.4-0.4
				c1-1,2.7-1.1,4-0.4c0,0,0,0,0,0C291.4,221.4,291.6,221.7,292,222C292,221.9,292,222,292,222z M294.5,211.2c0,0-0.1-0.1-0.1-0.1
				c-1.3-0.6-2.6-0.8-4-0.9c-0.4,0-0.8,0-1.2,0c-0.5,0-1-0.1-1.4,0.1c-0.1,0-0.1,0-0.2,0c-0.9,0-1.8,0.3-2.6,0.6
				c-1.2,0.5-2.4,1.2-3.4,2c0,0-0.1,0.1-0.1,0.1c0,0,0,0-0.1-0.1c0.5-0.4,1-0.8,1.5-1.1c-2.2,1.1-3.9,2.7-5.2,4.8
				c-1.2,1.9-1.9,4-2,6.3c0,0,0-0.1,0.1-0.2c0.3-1.1,0.5-2.3,0.9-3.4c0.5-1.4,1.2-2.7,2.2-3.8c0,0,0.1-0.1,0.1-0.1c0,0,0,0,0,0
				c-0.1,0.1-0.1,0.2-0.2,0.3c0.1,0,0.1-0.1,0.1-0.1c0.5-0.6,1-1.2,1.6-1.8c0.4-0.4,1-0.7,1.5-1.1c2.4-1.5,5-2.2,7.8-2.2
				c2,0,3.9,0.5,5.8,1.4c0.1,0,0.1,0.1,0.2,0.1c0,0,0,0,0,0c-0.1,0-0.1-0.1-0.2-0.1c-0.4-0.2-0.9-0.4-1.3-0.6c-2.9-1-5.8-1-8.7-0.2
				c-1.9,0.6-3.6,1.5-5.1,2.8c-2.2,2-3.5,4.6-4.1,7.5c-0.1,0.5-0.1,0.9-0.2,1.4c0.1,0,0.1,0,0.2,0c0.6-0.1,1.2-0.2,1.8-0.4
				c0.1,0,0.2-0.1,0.2-0.2c0.3-2.1,1-3.9,2.3-5.5c2-2.4,4.6-3.7,7.7-3.9c2-0.1,4,0.3,5.9,1.3c2.1,1.1,3.7,2.6,4.8,4.7
				c0.2,0.4,0.4,0.8,0.6,1.3c0.6-0.2,1.2-0.4,1.8-0.6c0,0,0,0.1,0,0.1c-0.6,0.2-1.2,0.4-1.8,0.6c0.2,0.6,0.3,1.2,0.5,1.9
				c0.8-0.2,1.5-0.3,2.3-0.5c-0.9-4.1-3.2-7.3-6.9-9.5c3.2,1.7,5.3,4.3,6.5,7.7c-0.1-0.4-0.2-0.8-0.4-1.2c0-0.1-0.1-0.2-0.2-0.3
				c-0.3-0.5-0.5-1-0.8-1.5c-0.2-0.4-0.5-0.7-0.7-1.1c-0.3-0.6-0.7-1.1-1.2-1.6c0,0-0.1-0.1-0.1-0.1c0,0,0,0,0,0
				c0.3,0.3,0.7,0.7,1,1.1c0,0,0,0-0.1,0.1c0,0-0.1-0.1-0.1-0.1c-0.3-0.3-0.6-0.6-1-1c-0.1-0.1-0.2-0.2-0.1-0.3l0,0c0,0,0.1,0,0.1,0
				c0.6,0.4,1.1,0.9,1.4,1.5c0.2,0.3,0.3,0.5,0.5,0.7c0.5,0.8,1,1.5,1.5,2.3c0.1,0.2,0.2,0.5,0.4,0.7c-0.7-2-1.9-3.8-3.5-5.3
				c0,0,0.1,0.1,0.1,0.2c-0.3-0.3-0.6-0.7-0.9-1c-0.8-0.7-1.8-1.3-2.8-1.8c-0.1-0.1-0.3-0.1-0.4-0.2
				C294.7,211.3,294.6,211.2,294.5,211.2z M294.4,217.4C294.4,217.4,294.4,217.4,294.4,217.4c-0.1,0.2-0.2,0.4-0.3,0.7c0,0,0,0,0,0
				c0,0,0.1-0.1,0.1-0.1c0.1-0.2,0.1-0.3,0.2-0.5c0-0.1,0.1-0.2,0.1-0.2c0,0,0.1,0,0.1,0c-0.1,0.3-0.2,0.5-0.4,0.8c0,0,0,0,0.1,0
				c0.3-0.2,0.4-0.5,0.5-0.9c0,0.1,0,0.1,0.1,0.1c0,0,0.1,0,0.2-0.1c-0.2,1.5-1.1,2.5-2.4,3.1c0.1,0,0.1,0.1,0.2,0.1
				c0.2,0.2,0.2,0.2,0,0.4c-0.2,0.2-0.3,0.4-0.5,0.6c0.2,0.3,0.4,0.6,0.5,0.9c0.1,0.1,0.1,0.1,0.2,0.1c0.3-0.1,0.6-0.1,0.9-0.1
				c0.1,0,0.2,0,0.2,0.2c0,0.1,0,0.2,0,0.4c0.6-0.5,1.2-0.8,1.9-0.8c0.7-0.1,1.4,0.1,2,0.5c0-0.1,0-0.1,0-0.2c0-0.4,0-0.4,0.4-0.4
				c0.2,0,0.5-0.1,0.7-0.1c-0.5-2.2-1.6-4-3.2-5.5c0,0.1-0.1,0.1-0.1,0.2c0.2,0,0.2,0,0.1,0.2c-0.1,0.2-0.2,0.3-0.3,0.5
				c-0.2,0.3-0.3,0.3-0.6,0.1c-0.3-0.3-0.6-0.5-0.9-0.7c-0.4,0.3-0.8,0.7-1.2,1c0.2,0.1,0.4,0.2,0.6,0.3c0.1,0.1,0.2,0,0.3-0.1
				C294.1,217.7,294.3,217.6,294.4,217.4z M280.6,218.4c-1.2,1.9-1.8,3.8-1.8,6c0.3,0,0.7-0.1,0.9-0.1c0.1,0.3,0.1,0.5,0.2,0.7
				c0.1-0.1,0.1-0.1,0.2-0.2c0.2-0.1,0.4-0.2,0.5-0.3c1.1-0.4,2.2-0.4,3.4-0.2c0.1,0,0.1,0,0.3,0.1c0-0.2,0-0.3-0.1-0.4
				c0,0,0.1,0,0.1,0c0.1,0.4,0.2,0.9,0.3,1.3c0,0,0,0,0,0c-0.1-0.4-0.1-0.8-0.2-1.2c0,0,0,0,0.1,0c0.1,0.4,0.1,0.9,0.2,1.3
				c0,0,0.1,0,0.1,0c0-0.1,0-0.2,0-0.2c0-0.4-0.1-0.7-0.1-1.1c0,0,0,0,0,0c0.1,0.3,0.1,0.6,0.2,0.9c0,0,0,0,0,0
				c0-0.3-0.1-0.5-0.1-0.8c0,0,0,0,0,0c0.1,0.3,0.2,0.7,0.2,1c0,0,0.1,0,0.1,0c0-0.3-0.1-0.7-0.1-1.1c0,0,0,0,0,0
				c0,0.1,0,0.2,0.1,0.3c0,0,0,0,0,0c0-0.2,0-0.4,0-0.6c-0.3,0-0.6,0.1-0.9,0.1c0,0,0.1-0.1,0.2-0.1c0.2,0,0.4-0.1,0.6-0.1
				c0.1,0,0.1-0.1,0.1-0.1c0.1-0.4,0.2-0.7,0.3-1.1c-0.2-0.2-0.5-0.5-0.8-0.7c0.1-0.1,0.1-0.1,0.2-0.2c-0.2-0.1-0.3-0.1-0.4-0.2
				c-0.3-0.1-0.5-0.1-0.8-0.3c-0.9-0.4-1.7-1.1-2.1-2.1c0-0.1-0.1-0.1-0.1-0.2c-0.1,0.1-0.2,0.2-0.3,0.3c0,0-0.1,0.1-0.1,0
				c-0.2-0.1-0.4-0.3-0.6-0.4c0,0-0.1-0.1-0.1-0.1c0.1,0,0.2,0.1,0.3,0.1c0,0,0,0,0,0C280.8,218.5,280.7,218.5,280.6,218.4z
				 M288.7,229.2c0-0.1-0.1-0.1-0.1-0.2c0-0.3-0.1-0.5-0.1-0.8c0,0-0.1-0.1-0.1-0.1c-0.3-0.1-0.6-0.2-0.9-0.3
				c-0.1,0.1-0.2,0.3-0.3,0.4c-0.1,0.1-0.2,0.3-0.3,0.4c-0.1,0.1-0.2,0.1-0.3,0c0,0-0.1-0.1-0.1-0.2c-0.3,1.5-1.1,2.5-2.3,3.2
				c0,0,0,0,0,0c0.3,0.2,0.3,0.2,0.1,0.6c0,0.1-0.1,0.1-0.1,0.2c-0.1,0.2-0.2,0.4-0.4,0.6c1.8,1,3.6,1.5,5.7,1.5
				c-0.1-0.4-0.1-0.8-0.2-1.1c0,0,0,0,0,0c0,0.1,0.1,0.1,0.1,0.2c0.1-0.1,0.1-0.1,0.1-0.2c0,0-0.1,0-0.1,0c0.1,0,0.2-0.1,0.3-0.1
				c-0.4-0.6-0.7-1.3-0.8-2c-0.1-0.7-0.1-1.4,0.2-2.1C289,229.2,288.9,229.2,288.7,229.2z M297.9,229.7c1-1.3,1.9-4.7,1.6-5.7
				c-0.3,0-0.6,0.1-0.9,0.1c-0.1,0-0.3,0-0.3-0.2c-0.6,0.4-1.3,0.6-2,0.6c-0.7,0-1.4-0.2-2-0.5c0,0.2,0,0.4,0,0.6
				c-0.4,0-0.7,0-1.1,0.1c0,0-0.1,0-0.1,0.1c-0.1,0.4-0.2,0.7-0.3,1.1c0.2,0.2,0.5,0.4,0.7,0.6c0.1,0.1,0.1,0.2,0,0.3
				c0,0.1-0.1,0.1-0.1,0.2c0.1,0,0.1,0,0.1,0c0.5-0.1,0.9,0,1.3,0.3c0.5,0.3,0.9,0.7,1.3,1.2c0.2,0.3,0.4,0.6,0.6,1
				c0.1-0.1,0.1-0.2,0.2-0.2C297.3,229.3,297.6,229.5,297.9,229.7z M291.6,234.3c1.9-0.5,3.6-1.4,4.9-2.8c-0.3-0.2-0.5-0.5-0.8-0.7
				c0.1-0.2,0.2-0.3,0.3-0.4c-0.7-0.2-1.3-0.5-1.9-0.9c-0.6-0.4-1-1-1.3-1.7c-0.1,0.2-0.2,0.3-0.4,0.4c-0.3-0.2-0.6-0.5-0.9-0.7
				c-0.3,0.2-0.6,0.3-0.9,0.5c0,0.2,0.1,0.5,0.1,0.7c0,0.3,0,0.3-0.3,0.4c0,0-0.1,0-0.1,0c0.8,1.2,1,2.5,0.7,3.9c0.1,0,0.2,0,0.3,0
				C291.5,233.4,291.5,233.8,291.6,234.3z M277.6,230.7c0.2-0.2,0.4-0.4,0.6-0.5c0,0,0-0.1,0-0.2c0-0.2,0.1-0.4,0.4-0.4
				c0,0,0,0.1,0.1,0.1c0.3-0.2,0.5-0.4,0.8-0.6c-0.3-0.9-0.6-1.7-0.9-2.5c-0.7,0.2-1.4,0.4-2.1,0.6c0.2,0.6,0.3,1.2,0.5,1.8
				c0.4-0.2,0.6-0.4,1-0.6c0.3-0.2,0.6-0.4,0.9-0.5c0,0,0,0,0,0c0,0-0.1,0-0.1,0.1c-0.5,0.3-1.1,0.7-1.6,1c-0.1,0-0.2,0.1-0.1,0.2
				C277.1,229.7,277.4,230.2,277.6,230.7z M300.8,228.3c-0.2,0.4-0.3,0.8-0.5,1.2c0.1,0.1,0.2,0.1,0.3,0.2c0.1-0.2,0.2-0.4,0.3-0.5
				c0,0,0,0,0,0c-0.1,0.1-0.1,0.3-0.2,0.4c-0.1,0.1,0,0.2,0,0.3c0.1,0.1,0.2,0.2,0.3,0.3c0,0,0,0,0,0c-0.1-0.1-0.3-0.2-0.4-0.4
				c-0.2,0.3-0.3,0.6-0.5,0.9c0.2,0.2,0.4,0.3,0.5,0.5c0.6-0.7,1.7-3.4,1.7-4.1c-0.7-0.4-1.5-0.8-2.2-1.2c-0.1,0.5-0.2,1-0.4,1.5
				c0,0.1,0,0.2,0.1,0.3c0.5,0.3,1,0.6,1.4,1c0.1,0.1,0.3,0.2,0.4,0.3c0,0,0,0,0,0.1C301.4,228.7,301.1,228.5,300.8,228.3z
				 M300.3,224c0,0.5-0.1,1.1-0.1,1.6c0,0,0.1,0.1,0.1,0.1c0.3,0.2,0.6,0.3,0.9,0.5c0.4,0.2,0.8,0.5,1.2,0.7
				c0.2-0.9,0.3-1.7,0.3-2.6C301.9,224.2,301.1,224.1,300.3,224z M269.9,226.7C269.9,226.7,269.9,226.7,269.9,226.7
				c0.2,0,0.3,0,0.4,0.1c0.1,0.1,0.2,0.2,0.3,0c0-0.1-0.1-0.1-0.1-0.2c0.2,0.1,0.3,0.1,0.5,0c0,0,0-0.1,0-0.1c0.2,0,0.5-0.1,0.7-0.1
				c-0.1-0.1-0.1-0.1-0.1-0.2c0,0,0,0,0,0c0.1,0.1,0.2,0.1,0.4,0.2c0-0.1,0-0.1,0-0.1c0.2,0,0.3,0.1,0.4,0.1c0,0,0,0,0,0
				c0-0.1-0.1-0.1-0.1-0.2c0,0,0,0,0.1-0.1c0.1,0.1,0.2,0.2,0.3,0.3c0,0,0,0,0,0c-0.1-0.1-0.1-0.2-0.2-0.3c0,0,0,0,0,0
				c0.1,0.1,0.2,0.3,0.3,0.4c0,0,0,0,0,0c0-0.1,0-0.2-0.1-0.3c0,0,0,0,0,0c0.1,0.2,0.2,0.4,0.4,0.6c0,0,0,0,0,0
				c-0.1-0.2-0.2-0.4-0.3-0.6c0,0,0,0,0.1,0c0.2,0.3,0.3,0.6,0.4,0.9c0,0.1,0.1,0.2,0.2,0.2c-0.4-0.7-0.5-1.4-0.2-2.1c0,0,0,0-0.1,0
				c-0.4,0.5-1,0.5-1.5,0.5c-0.5,0-0.9-0.1-1.4-0.2c-0.9-0.1-1.6,0.3-2,1c0,0.1,0,0.2,0,0.2c0.3,0.2,0.5,0.5,0.8,0.7
				c0.1,0.1,0.2,0.1,0.3,0.1c-0.8-0.5-1-0.6-1-0.9c0.1,0.1,0.1,0.1,0.2,0.2c0,0,0.1,0,0.2,0s0.1,0,0.2,0c0.1,0.1,0.3,0.1,0.4,0.2
				c0,0,0-0.1,0.1-0.1c-0.1,0-0.2-0.1-0.3-0.1c0,0,0,0,0-0.1c0.2,0.1,0.4,0.2,0.5,0.3c0,0,0,0,0,0c-0.1-0.1-0.2-0.2-0.3-0.2
				c0,0,0,0,0.1-0.1c0.1,0.1,0.2,0.1,0.3,0.2c0.1,0.1,0.2,0.1,0.2,0.1c0,0,0,0,0-0.1c-0.1-0.1-0.3-0.2-0.4-0.4c0,0,0,0,0,0
				c0.2,0.1,0.3,0.2,0.5,0.4c0,0,0-0.1,0.1-0.1C270.2,226.9,270,226.8,269.9,226.7z M286.4,228.4c-0.2-0.2-0.5-0.4-0.7-0.6
				c-0.2,0.1-0.5,0.3-0.7,0.4c-0.9,0.5-1.5,1.3-1.8,2.2c-0.1,0.4-0.1,0.4,0.2,0.6c0.2-0.3,0.5-0.5,0.7-0.8l0,0
				c-0.1,0.1-0.2,0.3-0.3,0.4c0,0,0.1,0,0.1,0.1c0.2-0.3,0.3-0.5,0.5-0.8c0,0,0,0,0.1,0c-0.1,0.2-0.3,0.5-0.5,0.7
				c0.2,0.1,0.3,0,0.4-0.2c0.1-0.1,0.2-0.2,0.3-0.4c0.2-0.3,0.4-0.6,0.5-0.8c0,0,0,0,0,0c-0.2,0.3-0.3,0.7-0.5,1c0,0,0,0,0.1,0
				c-0.2,0.2-0.3,0.3-0.5,0.5c0.6-0.5,1.1-1.1,1.4-1.8c-0.1,0.2-0.2,0.5-0.3,0.7C286.2,229.4,286.1,228.8,286.4,228.4z M277.2,213.7
				c-0.7,0-1.2-0.4-1.6-0.9c-0.2-0.2-0.3-0.4-0.5-0.6c-0.3-0.3-0.5-0.6-0.8-0.9c-0.5-0.4-1.1-0.4-1.7-0.2c0.1,0.3,0.3,0.5,0.4,0.7
				c0,0,0,0,0.1,0c0-0.1,0-0.2,0-0.3c0.2,0.3,0.1,0.6,0.5,0.8c0-0.2-0.1-0.3-0.1-0.4c0,0,0.1,0,0.1,0c0.1,0.3,0.2,0.5,0.3,0.8
				c0,0,0,0,0,0c-0.1-0.3-0.2-0.5-0.2-0.8c0,0,0,0,0,0c0.1,0.2,0.2,0.4,0.3,0.6c0,0,0,0,0.1,0c0-0.1,0-0.1,0-0.2
				c0.1,0.1,0.1,0.2,0.2,0.4s0.2,0.2,0.3,0.3c0,0,0,0,0,0c0-0.1,0-0.3-0.1-0.4c0.2,0.2,0.1,0.6,0.5,0.7c0-0.1,0-0.1,0-0.2
				c0.2,0.1,0.2,0.5,0.5,0.5c0.1,0.1,0.1,0.2,0.2,0.3c0-0.1,0.1-0.1,0.1-0.2c0,0.1,0,0.2,0.1,0.2c0,0.1,0,0.1,0.1,0.1
				c0.2,0.1,0.2,0.4,0.3,0.6c0,0-0.1-0.1-0.1-0.1c0,0,0,0,0,0c0.1,0.1,0.1,0.3,0.2,0.4C276.3,214.3,276.7,213.9,277.2,213.7z
				 M278.2,222.9c-0.7,0.1-1.4,0.3-2.2,0.4c0,0.7,0,1.3,0,2c0.1,0,0.1,0,0.1,0c0.7-0.2,1.3-0.3,2-0.5c0,0,0.1-0.1,0.1-0.1
				c0-0.3,0-0.6,0-0.8C278.2,223.5,278.2,223.2,278.2,222.9z M289,216.4c-0.1-0.4,0-0.9-0.3-1.4c-0.3,0-0.7,0.1-1,0.1
				c-0.1,0-0.1,0.1-0.1,0.1c-0.2,0.7-0.3,1.4-0.2,2.1c0,0.2,0.1,0.3,0.1,0.5c0-0.2-0.1-0.5-0.1-0.7c0-0.2,0-0.5,0-0.7c0,0,0,0,0.1,0
				c0.1,0.7,0.1,1.4,0.5,2c-0.1-0.5-0.1-1-0.2-1.5l0,0c0.2,0.7,0.3,1.3,0.5,2c0,0,0.1,0,0.1,0c-0.1-0.6-0.2-1.2-0.2-1.8c0,0,0,0,0,0
				c0,0.2,0.1,0.3,0.1,0.5c0,0.2,0.1,0.3,0.1,0.5c0,0.2,0.1,0.3,0.2,0.5l0,0c0-0.5-0.1-0.9-0.1-1.4c0,0,0,0,0,0
				c0.1,0.4,0.2,0.7,0.3,1.1c0,0,0,0,0.1,0c0-0.4-0.1-0.7-0.1-1.1c0,0,0.1,0,0.1,0c0.1,0.2,0.1,0.5,0.2,0.8c0.1-0.7-0.1-1.3-0.1-1.9
				c0,0,0,0,0,0C289,216.3,289,216.3,289,216.4z M302.7,224.2c0-0.8-0.1-1.5-0.2-2.2c-0.8,0.2-1.5,0.3-2.3,0.5
				c0,0.5,0.1,0.9,0.1,1.4c0,0,0.1,0.1,0.1,0.1C301.1,224,301.9,224.1,302.7,224.2z M279.8,237.3c-0.5-0.3-0.9-0.6-1.1-1.1
				c0,0.7-0.4,1.2-0.9,1.6c-0.1,0.1-0.3,0.2-0.4,0.4c-0.3,0.3-0.7,0.6-1,0.9c-0.4,0.5-0.4,1.1-0.2,1.6c0,0,0.1,0.1,0.1,0.1
				c0.2,0,0.2,0,0.2-0.2c0-0.4,0-0.7,0-1c0,0,0,0,0.1,0c0,0.4,0,0.7,0,1.1c0.1,0,0.2-0.1,0.2-0.2c0-0.1,0-0.2,0-0.4
				c0-0.2,0-0.5,0-0.7c0,0,0,0,0.1,0c0,0.4,0,0.7,0,1.1c0.1-0.1,0.2-0.1,0.2-0.3c0-0.2,0-0.3,0-0.5c0-0.2,0-0.3,0-0.5c0,0,0,0,0.1,0
				c0,0.3,0,0.7,0,1c0.2-0.1,0.2-0.1,0.2-0.4c0-0.3-0.1-0.6,0-0.9c0,0,0,0,0.1,0c0,0.3,0,0.6,0,1c0.1-0.2,0.2-0.3,0.2-0.5
				c0-0.2,0-0.4,0-0.6c0,0,0,0,0.1,0c0,0.2,0.1,0.4,0.1,0.6c0.2-0.2,0.1-0.5,0.1-0.7c0,0.1,0.1,0.2,0.1,0.3c0.3-0.3,0.1-0.7,0.2-1.1
				c0,0.2,0.1,0.3,0.1,0.4c0,0,0,0,0.1,0c0.1-0.2,0.1-0.3,0.2-0.5c0,0,0,0,0.1,0.1c0,0,0,0,0.1,0c0-0.2,0.1-0.5,0.1-0.7c0,0,0,0,0,0
				c0,0.1,0.1,0.3,0.1,0.4c0.3-0.1,0.1-0.3,0.1-0.5c0,0.1,0.1,0.3,0.1,0.4c0.1,0,0.1-0.1,0.2-0.1c0-0.1,0-0.2-0.1-0.2c0,0,0,0,0,0
				c0.1,0.1,0.1,0.2,0.2,0.4C279.5,237.4,279.6,237.3,279.8,237.3z M310,221.6C310,221.6,310.1,221.6,310,221.6
				c-0.1-0.2-0.2-0.3-0.4-0.4c-0.5-0.4-1.1-0.7-1.8-0.5c-0.4,0.1-0.7,0.3-1,0.4c-0.6,0.3-1.1,0.3-1.7,0c-0.1-0.1-0.2-0.1-0.3-0.1
				c0.2,0.4,0.3,0.9,0.3,1.4c0.1-0.3,0.3-0.5,0.4-0.7c0,0,0,0,0,0c-0.1,0.2-0.1,0.4-0.2,0.6c0.4-0.1,0.4-0.5,0.7-0.6
				c-0.1,0.1-0.2,0.3-0.3,0.4c0,0,0,0,0.1,0c0.1-0.2,0.2-0.3,0.3-0.5c0,0,0,0,0,0c0,0.1-0.1,0.2-0.1,0.3c0.2,0,0.2,0,0.3-0.1
				c0.1-0.1,0.2-0.2,0.2-0.3c0,0,0,0,0.1,0c-0.1,0.1-0.1,0.3-0.2,0.4c0.2,0,0.3-0.1,0.3-0.2c0-0.2,0.1-0.2,0.2-0.2
				c-0.1,0.2-0.1,0.3-0.2,0.4c0.2,0.1,0.3,0,0.3-0.2c0.1-0.2,0.2-0.3,0.3-0.5c0,0,0,0,0.1,0c-0.1,0.2-0.2,0.4-0.3,0.6
				c0.2,0,0.2,0,0.2-0.1c0.1-0.1,0.2-0.2,0.3-0.4c0,0,0,0,0.1,0c-0.1,0.1-0.1,0.2-0.2,0.3c0,0,0,0,0,0c0.1-0.1,0.3-0.3,0.4-0.4
				c0,0,0,0,0,0c-0.1,0.1-0.1,0.2-0.2,0.4c0,0,0,0,0,0c0.1-0.2,0.3-0.3,0.4-0.5c0,0,0,0,0.1,0c-0.1,0.2-0.2,0.3-0.3,0.5
				c0.2,0.1,0.2,0,0.3-0.2c0.1-0.1,0.1-0.2,0.2-0.3c0,0,0,0,0.1,0c-0.1,0.1-0.1,0.3-0.2,0.4c0.2,0.1,0.2-0.1,0.3-0.2
				c0.1-0.1,0.1-0.2,0.2-0.2c0,0,0,0,0.1,0c-0.1,0.1-0.1,0.2-0.2,0.4c0,0,0,0,0,0c0.1-0.1,0.2-0.2,0.3-0.4c0,0,0,0,0,0
				c0,0.1-0.1,0.2-0.1,0.3c0.3,0,0.2-0.4,0.4-0.4c-0.1,0.1-0.1,0.2-0.1,0.3C309.7,221.6,309.9,221.6,310,221.6z M278.6,232.2
				c0.6-0.5,1.1-1,1.6-1.5c0,0,0-0.1,0-0.2c-0.2-0.3-0.3-0.5-0.5-0.7c-0.1-0.2-0.2-0.4-0.3-0.6c-0.2,0.2-0.4,0.3-0.5,0.5
				c0,0,0,0.1,0,0.1c0,0.2,0,0.3-0.1,0.4c-0.1,0.1-0.3,0.1-0.4,0c0,0-0.1,0-0.1,0c-0.2,0.1-0.4,0.3-0.6,0.4
				C278,231.3,278.3,231.8,278.6,232.2z M290.4,230.6C290.4,230.6,290.5,230.6,290.4,230.6c0.2,0.7,0.3,1.3,0.3,2c0,0,0,0,0.1,0
				c0-0.1,0-0.1,0-0.2c0-0.4,0-0.8,0-1.2c0-0.2,0-0.4-0.1-0.7c0-0.2-0.1-0.3-0.1-0.5c0,0,0,0,0.1,0c0.1,0.2,0.2,0.4,0.3,0.6
				c-0.1-0.6-0.3-1.1-0.6-1.5c0,0-0.1-0.1-0.1-0.1c-0.3,0-0.6,0.1-0.9,0.1c-0.3,1.1,0.1,2.5,0.3,3c-0.1-0.7-0.2-1.5-0.3-2.3
				c0.2,0.9,0.3,1.7,0.6,2.6c0-0.4,0-0.7,0-1.1c0-0.4-0.1-0.7-0.1-1.1c0.2,0.8,0.2,1.7,0.4,2.5c0,0,0,0,0.1,0c0-0.3-0.1-0.7-0.1-1
				c0,0,0,0,0,0c0,0.1,0.1,0.2,0.1,0.4c-0.1-0.6-0.1-1.1-0.2-1.7c0.2,0.8,0.3,1.5,0.5,2.2c0,0,0,0,0,0
				C290.5,232,290.5,231.3,290.4,230.6z M295.8,229.6C295.9,229.5,295.9,229.5,295.8,229.6c-0.1-0.2-0.3-0.4-0.5-0.6c0,0,0,0,0,0
				c0.1,0.1,0.2,0.2,0.4,0.2c0,0,0,0,0,0c-0.1-0.1-0.2-0.2-0.3-0.3c0,0,0,0,0,0c0.3,0.2,0.6,0.5,0.9,0.7c0-0.1-0.1-0.1-0.1-0.2
				c-0.2-0.4-0.5-0.7-0.8-1c0,0,0-0.1-0.1-0.2c0,0,0,0,0,0c-0.2-0.2-0.4-0.4-0.6-0.6c-0.3-0.3-0.6-0.4-0.9-0.5
				c-0.4-0.1-0.7,0-0.9,0.3c-0.2,0.3-0.2,0.3,0,0.7c0.1,0.2,0.3,0.4,0.4,0.5c0.1,0.2,0.3,0.3,0.4,0.5l0,0c-0.2-0.4-0.4-0.7-0.6-1.1
				c0.2,0.2,0.4,0.5,0.7,0.7c0.2,0.2,0.5,0.4,0.8,0.6c0,0,0,0,0,0c-0.3-0.3-0.5-0.7-0.8-1c0,0,0,0,0,0c0.1,0.2,0.3,0.3,0.4,0.4
				c0.1,0.1,0.2,0.3,0.4,0.4c0-0.1-0.3-0.2-0.1-0.4c0-0.1-0.1-0.1-0.1-0.2c0,0,0,0,0,0C295.1,228.8,295.5,229.2,295.8,229.6z
				 M296.6,223.7L296.6,223.7c0.1,0,0.2,0,0.2,0c0.4-0.1,0.7-0.1,1.1-0.2c0.4-0.1,0.4-0.1,0.4-0.5c0-0.1,0-0.2-0.1-0.2
				c-1.3-0.7-2.6-0.5-3.8,0.3c0,0-0.1,0.1-0.1,0.2c0,0.1,0,0.3,0.1,0.4c1.2,0.1,2.3-0.1,3.5-0.3c0,0,0,0,0,0.1
				C297.4,223.5,297,223.6,296.6,223.7z M276.3,227.1c0.7-0.2,1.5-0.4,2.1-0.6c-0.1-0.5-0.1-1.1-0.2-1.7c-0.7,0.3-1.4,0.5-2.1,0.5
				C276.1,226,276.2,226.6,276.3,227.1z M296.1,234.1c-0.2,0.1-0.4,0.3-0.6,0.4c0.1,0.2,0.3,0.4,0.4,0.7c0,0,0,0,0,0
				c-0.1-0.2-0.3-0.4-0.4-0.5c-0.1-0.1-0.1-0.1-0.2,0c0.2,0.2,0.2,0.4,0,0.5c-0.1,0.1-0.2,0.1-0.3,0.1s-0.2-0.1-0.3-0.2
				c0.1,0.3,0.2,0.6,0.3,0.9c0,0,0,0-0.1,0c-0.1-0.2-0.2-0.3-0.2-0.5c-0.3,0.1-0.6,0.3-0.8,0.4c0,0.2,0.1,0.3,0.2,0.5
				c0.1,0,0.1,0,0.1,0c0.7-0.2,1.3-0.6,1.9-0.8c0.3-0.1,0.5-0.3,0.8-0.5C296.7,234.8,296.4,234.4,296.1,234.1z M304.6,235.1
				C304.6,235.1,304.6,235.1,304.6,235.1c0.2,0,0.4,0.1,0.5,0.2c0.1,0,0.1,0,0.2,0.1c0,0,0,0,0-0.1c-0.2-0.2-0.4-0.4-0.7-0.5
				c-0.3-0.1-0.6-0.3-1-0.4c-0.5-0.2-0.8-0.5-1-1c0-0.1-0.1-0.3-0.2-0.4c-0.1,0.5-0.4,0.9-0.7,1.2c0.6,0.3,1.1,0.6,1.7,0.9
				c0-0.1,0-0.1-0.1-0.2c-0.3-0.2-0.6-0.5-0.9-0.7c0,0-0.1-0.1-0.1-0.1c0,0,0,0,0-0.1c0.7,0.5,1.4,1.1,2.1,1.6
				c-0.2-0.3-0.5-0.4-0.7-0.7c0.2,0.1,0.5,0.2,0.7,0.3c0.3,0.2,0.5,0.4,0.7,0.6c0.1,0.1,0.2,0.2,0.3,0.2c0-0.1,0-0.1-0.1-0.2
				c0,0-0.1-0.1-0.1-0.1c0.1-0.1,0-0.2-0.1-0.3c-0.1-0.1-0.3-0.2-0.4-0.4C304.7,235.2,304.6,235.2,304.6,235.1z M300.2,229.4
				c0.2-0.4,0.4-0.7,0.6-1.1c-0.3-0.2-0.7-0.5-1-0.7c-0.4,1.1-0.9,2.1-1.5,3c0.1,0.1,0.2,0.2,0.4,0.3c0.2-0.3,0.3-0.5,0.5-0.8
				c-0.1-0.1-0.1-0.1-0.2-0.2c0,0,0,0,0,0c0.1,0,0.1,0.1,0.2,0.1c0.1-0.2,0.3-0.5,0.4-0.8c-0.1,0-0.1-0.1-0.2-0.1c0,0,0,0,0,0
				c0.1,0,0.1,0,0.2,0c0.1-0.3,0.3-0.6,0.5-0.9c0,0,0,0,0,0c-0.1,0.3-0.3,0.7-0.4,1C299.9,229.2,300,229.3,300.2,229.4z M280.7,232
				c-0.3-0.3-0.5-0.6-0.7-0.8c-0.4,0.4-0.9,0.8-1.3,1.1c0.3,0.4,0.7,0.8,1,1.1C280,232.9,280.4,232.5,280.7,232z M298.1,233.2
				c0.2,0.2,0.3,0.3,0.5,0.5c0.8-0.8,1.4-1.6,2-2.5c-0.2-0.2-0.4-0.3-0.5-0.4c-0.2,0.3-0.4,0.5-0.5,0.8c0.1,0.1,0.3,0.2,0.4,0.3
				c0,0,0,0,0,0c-0.1-0.1-0.3-0.2-0.4-0.3c-0.2,0.3-0.4,0.5-0.6,0.8c0.1,0.1,0.2,0.2,0.2,0.2c0,0,0,0,0,0c-0.1,0-0.1-0.1-0.2-0.1
				c-0.1-0.1-0.1-0.1-0.2,0C298.5,232.8,298.3,233,298.1,233.2z M281.3,235.5c-1.8-1.5-3.3-3.3-4.3-5.4c-1-2.2-1.5-4.4-1.3-6.8
				c-0.1,0.9-0.2,1.8-0.1,2.7c0.2,1.6,0.8,3,1.3,4.4c0.5,1.3,1.4,2.3,2.3,3.3c0.5,0.5,1.1,1,1.7,1.5
				C281,235.4,281.1,235.4,281.3,235.5z M298,233.3c-0.3,0.2-0.5,0.4-0.8,0.7c0.2,0.2,0.3,0.4,0.5,0.6c0,0,0,0,0,0
				c-0.2-0.1-0.3-0.3-0.5-0.4c0,0-0.1-0.1-0.2,0c-0.2,0.1-0.3,0.2-0.5,0.3c0.2,0.2,0.3,0.5,0.5,0.7c0.5-0.4,1-0.9,1.5-1.3
				C298.4,233.6,298.2,233.5,298,233.3z M283.1,234.6c-0.3-0.2-0.6-0.4-0.9-0.5c-0.1,0.2-0.2,0.3-0.4,0.5c-0.1,0.2-0.2,0.3-0.4,0.5
				c0.3,0.2,0.5,0.3,0.8,0.5c0,0,0.1,0,0.2,0C282.7,235.2,282.9,234.9,283.1,234.6z M285.9,236.2c-0.3-0.1-0.4-0.2-0.3-0.6
				c-0.2-0.1-0.5-0.2-0.7-0.2c-0.1,0.4-0.3,0.8-0.4,1.2c0.4,0.1,0.8,0.3,1.2,0.4c0-0.1,0-0.2,0.1-0.3c-0.3-0.1-0.6-0.2-0.9-0.4
				c0,0,0,0,0,0c0.3,0.1,0.6,0.2,0.9,0.3C285.8,236.5,285.9,236.4,285.9,236.2z M277.4,217.7C277.4,217.7,277.4,217.7,277.4,217.7
				C277.4,217.7,277.4,217.7,277.4,217.7c-0.1,0.1-0.1,0.2-0.2,0.2c-0.5,1-0.9,2.1-1.2,3.1c-0.2,0.7-0.4,1.4-0.4,2.1
				c0,0.6,0.1,1.3,0.1,2c0,0.1,0.1,0.1,0.1,0.1c0-0.1,0-0.1,0-0.2c0-0.6,0-1.3,0-1.9c0.1-1.8,0.6-3.6,1.4-5.2
				C277.3,217.9,277.4,217.8,277.4,217.7z M282.5,235.6c0.3,0.2,0.7,0.4,1,0.6c0.2-0.4,0.4-0.8,0.5-1.1c-0.3-0.1-0.5-0.3-0.8-0.4
				C283,235,282.8,235.3,282.5,235.6z M302.8,221c0,0.2,0.1,0.3,0.1,0.5c0.1,0.5,0.1,1,0.2,1.5c0.1,0.8,0.1,1.7,0,2.5
				c-0.1,1.2-0.6,2.4-0.8,3.6c0,0.1,0,0.1-0.1,0.2C303.3,226.9,303.6,223.9,302.8,221z M280.5,234.2c0.2-0.3,0.4-0.6,0.6-1
				c-0.2-0.2-0.4-0.4-0.7-0.6c-0.2,0.3-0.5,0.6-0.7,0.9C280,233.7,280.2,233.9,280.5,234.2z M281.2,233.3c-0.2,0.3-0.5,0.6-0.7,0.9
				c0.3,0.2,0.6,0.4,0.9,0.7c0.2-0.3,0.5-0.6,0.7-0.9c0,0-0.1-0.1-0.1-0.1c-0.2,0.3-0.4,0.3-0.6,0.2c-0.2-0.1-0.2-0.3,0-0.6
				C281.4,233.4,281.3,233.4,281.2,233.3z M284.2,235.1c-0.2,0.4-0.4,0.7-0.6,1.1c0.3,0.1,0.5,0.2,0.8,0.4c0.1-0.4,0.3-0.8,0.4-1.2
				C284.6,235.3,284.4,235.2,284.2,235.1z M291.5,234.9c0.1,0.5,0.1,1,0.2,1.6c0.2,0,0.4-0.1,0.6-0.1c-0.1-0.5-0.1-1.1-0.2-1.6
				C291.8,234.9,291.6,234.9,291.5,234.9z M285.9,236.7c0.3,0.1,0.6,0.2,0.9,0.2c0,0,0.1,0,0.1-0.1c0.1-0.2,0.2-0.5,0.2-0.8
				c-0.3-0.1-0.6-0.2-0.9-0.2C286.1,236.1,286,236.4,285.9,236.7z M300.4,209.8C300.4,209.8,300.5,209.8,300.4,209.8
				c0.1-0.1,0.1-0.1,0.1-0.2c0-0.5-0.1-1-0.1-1.5c0,0,0-0.1,0-0.1c-0.3,0.2-0.5,0.6-0.6,0.9c-0.1,0.2,0,0.3,0.1,0.5
				c0.1,0.3,0.1,0.5,0.2,0.8c0,0,0,0,0.1,0c0-0.1,0-0.1,0-0.2c-0.1-0.4-0.1-0.8-0.2-1.2c0,0,0.1,0,0.1,0c0.1,0.4,0.1,0.8,0.2,1.2
				C300.3,210,300.3,209.9,300.4,209.8c-0.1-0.1-0.1-0.2-0.2-0.4c0-0.2-0.1-0.3-0.1-0.5c0-0.2,0-0.3,0-0.5c0,0,0.1,0,0.1,0
				C300.3,208.9,300.3,209.3,300.4,209.8z M294.5,235c0-0.1-0.1-0.2-0.1-0.3c-0.3,0.1-0.5,0.2-0.8,0.4c0.1,0.3,0.2,0.5,0.3,0.8
				c0.3-0.1,0.6-0.2,0.8-0.4C294.7,235.3,294.6,235.2,294.5,235c-0.1,0.1-0.1,0.1-0.2,0.1c0,0,0,0,0,0
				C294.4,235.1,294.5,235,294.5,235z M287.9,237.1c0.1-0.3,0.1-0.6,0.2-0.9c-0.3,0-0.5-0.1-0.8-0.1c-0.1,0.3-0.2,0.6-0.3,0.8
				C287.3,237,287.6,237.1,287.9,237.1z M295.9,230.7C295.9,230.7,295.9,230.7,295.9,230.7c0.2,0.3,0.5,0.5,0.8,0.7
				c0.4-0.5,0.8-1,1.3-1.6c-0.1,0-0.1-0.1-0.2-0.1c0,0.1,0,0.1,0,0.2c0-0.3-0.3-0.4-0.5-0.5c-0.1,0.3,0.4,0.3,0.4,0.6
				c-0.1,0-0.1-0.1-0.2-0.1c0,0.1,0,0.3,0,0.4c0-0.1-0.1-0.1-0.1-0.2c0,0.2,0,0.2,0,0.3c-0.1-0.1-0.2-0.2-0.2-0.2c0,0-0.1,0-0.1,0
				c0,0.1,0.1,0.2,0.1,0.3c-0.2-0.1-0.1,0.1-0.2,0.2c0-0.1,0-0.3-0.3-0.4c0.1,0.2,0.1,0.3,0.2,0.5c0,0-0.1-0.1-0.1-0.1
				c0,0.1,0,0.1,0,0.1c0,0.2-0.1,0.2-0.2,0.1c-0.1-0.1-0.3-0.2-0.4-0.3C296,230.7,295.9,230.7,295.9,230.7z M283.7,233.7
				c-0.2-0.1-0.4-0.3-0.6-0.4c-0.4-0.3-0.9-0.4-1.2-0.9c-0.1,0.1-0.1,0.2-0.2,0.3c0.6,0.4,1.2,0.8,1.8,1.3
				C283.6,233.9,283.6,233.8,283.7,233.7z M293.1,236.1c-0.1-0.3-0.2-0.5-0.2-0.8c-0.2,0.1-0.5,0.1-0.7,0.2c0.1,0.3,0.1,0.5,0.1,0.8
				C292.6,236.3,292.9,236.2,293.1,236.1z M292.3,239.8c-0.4,0.3-0.8,0.3-1.3,0.3c0.1,0.1,0.2,0.1,0.3,0.2c0,0,0-0.1,0-0.1
				c0.1,0,0.2,0.1,0.3,0.1c0,0,0,0,0,0c0,0-0.1,0-0.2,0c0.1,0.2,0.3,0.3,0.4,0.4c0,0,0,0-0.1,0.1c-0.1-0.1-0.2-0.2-0.3-0.3
				c0,0-0.1,0.1-0.1,0.1c0.2,0.2,0.4,0.4,0.6,0.6C291.9,240.8,292.2,240.3,292.3,239.8z M291,236.3c0.1,0,0.3,0,0.4,0
				c0-0.5-0.1-0.9-0.1-1.3c-0.2,0-0.3,0-0.5,0.1c0,0.2,0.1,0.5,0.1,0.7c0.1,0,0.1,0,0.2,0c0,0,0,0,0,0c-0.1,0-0.1,0-0.2,0.1
				C291,236,291,236.1,291,236.3z M290.3,236.4c0,0.3,0.1,0.6,0.1,0.9c0.2,0,0.4,0,0.6-0.1c0,0,0.1-0.1,0.1-0.1
				c0-0.2-0.1-0.5-0.1-0.7C290.7,236.6,290.5,236.4,290.3,236.4z M299.2,223.8c-0.1,0-0.2,0-0.2,0.1c-0.1,0-0.2,0-0.4-0.1
				c0.2,0,0.3-0.1,0.4-0.1c0-0.1,0-0.2,0-0.2c-0.1,0-0.3,0-0.4,0c0,0.2,0,0.3,0,0.5c0.3,0,0.7-0.1,1-0.1c0,0,0.1-0.1,0.1-0.1
				c-0.1-0.5-0.1-1-0.2-1.6c0,0-0.1-0.1-0.1-0.1c-0.2,0-0.3,0-0.5,0.1c0.1,0.1,0.3,0.1,0.4,0c0.2,0.4,0.2,0.9,0.3,1.4
				c-0.1,0-0.1-0.1-0.2-0.1C299.2,223.5,299.2,223.7,299.2,223.8z M288.8,236.3c-0.2,0-0.4,0-0.6-0.1c-0.1,0.3-0.2,0.6-0.2,0.9
				c0.2,0,0.5,0,0.7,0.1C288.7,236.9,288.7,236.6,288.8,236.3z M290.2,237.3c0-0.3-0.1-0.5-0.1-0.8c0,0-0.1-0.1-0.1-0.1
				c-0.2,0-0.3,0-0.5,0c0,0.3,0,0.6,0,0.9C289.7,237.3,290,237.3,290.2,237.3z M281.3,233.3c0.2,0.1,0.3,0.1,0.4,0.1
				c0.1,0,0.3,0.1,0.3,0.2c0,0.1,0.1,0.2,0.2,0.3c0.1-0.2,0.2-0.3,0.3-0.4c-0.3-0.3-0.6-0.5-0.9-0.7
				C281.5,233,281.4,233.1,281.3,233.3z M280.8,231.9c0.1-0.1,0.2-0.2,0.3-0.3c-0.2-0.3-0.5-0.6-0.7-0.8c-0.1,0.1-0.3,0.3-0.4,0.4
				C280.3,231.4,280.5,231.7,280.8,231.9z M304,223.3c0.3,0,0.3,0,0.3-0.2c0.1-0.6,0-1.1-0.1-1.7c0,0,0-0.1-0.1-0.1
				c-0.2-0.1-0.3,0.1-0.3,0.2c0,0,0.1,0.1,0.1,0.1c0,0,0.1-0.1,0.1-0.1c0,0.5,0,1,0.1,1.5c0,0,0,0-0.1,0c0-0.1,0-0.1,0-0.2
				C303.9,223,304,223.2,304,223.3z M280.5,232.6c0.2,0.2,0.4,0.3,0.7,0.5c0.1-0.2,0.2-0.3,0.3-0.5c-0.2-0.2-0.4-0.4-0.6-0.6
				C280.7,232.3,280.6,232.5,280.5,232.6z M293.3,236.1c0.2-0.1,0.4-0.1,0.6-0.2c-0.1-0.3-0.2-0.5-0.3-0.8c-0.2,0.1-0.4,0.1-0.5,0.2
				C293.1,235.6,293.2,235.8,293.3,236.1z M288.9,236.4c-0.1,0.3-0.1,0.6-0.2,0.9c0.2,0,0.4,0,0.6,0c0-0.3,0-0.6,0-0.9
				C289.2,236.4,289.1,236.4,288.9,236.4z M302.8,224.3C302.9,224.3,302.9,224.2,302.8,224.3c0.1-0.1,0.1-0.2,0.1-0.2
				c0-0.3,0-0.5,0-0.8c-0.1-0.8-0.1-1.7-0.5-2.4c-0.1-0.1-0.1-0.3-0.2-0.4c0,0.1,0,0.1,0,0.2c0.1,0.5,0.3,1,0.4,1.5
				c0.1,0.7,0.1,1.3,0.2,2C302.8,224.1,302.8,224.2,302.8,224.3z M291.1,239.3c0.3,0,0.6-0.1,0.9-0.1c-0.1-0.4-0.1-0.8-0.1-1.1
				c0,0-0.1,0-0.1-0.1c0,0.1,0.1,0.1,0.1,0.1c-0.1,0-0.1,0-0.2,0c0,0,0,0,0,0c0.1,0,0.1,0.1,0.2,0.1c0,0.1,0,0.2,0,0.4
				c-0.1-0.1-0.2-0.1-0.3-0.1c0,0,0,0,0,0c0,0.1,0.1,0.1,0.1,0.2c0,0.2,0,0.2,0,0.4c-0.1-0.1,0-0.3-0.2-0.4c0,0.1,0,0.2,0,0.4
				c-0.1-0.1-0.2-0.1-0.2-0.1C291.1,239.1,291.1,239.2,291.1,239.3z M299,211.3c0.1-0.2,0.1-0.7-0.1-0.9c-0.3,0.1-0.6,0.3-0.9,0.4
				C298.4,211,298.7,211.2,299,211.3z M283.2,234.5c0.1-0.1,0.2-0.3,0.2-0.4c-0.3-0.2-0.6-0.4-0.9-0.5c-0.1,0.1-0.2,0.3-0.3,0.4
				C282.6,234.1,282.9,234.3,283.2,234.5z M288.5,219.4C288.5,219.4,288.5,219.4,288.5,219.4c0.1,0.1,0.1,0.3,0.2,0.4
				c0,0.1,0.1,0.1,0.1,0.1c0.1,0,0.3,0,0.4,0c-0.1-0.2-0.1-0.4-0.1-0.6c0,0,0,0,0.1,0c0,0.2,0.1,0.4,0.1,0.6c0.2-0.2,0-0.4,0-0.7
				c-0.1,0-0.2,0-0.4,0.1c0,0.2,0.1,0.4,0.1,0.6c-0.1-0.1-0.1-0.2-0.1-0.3C288.8,219.2,288.8,219.2,288.5,219.4
				c-0.1-0.1-0.1-0.1-0.2,0c0,0.2,0.1,0.4,0.1,0.5c0,0,0.1,0.1,0.1,0.1c0-0.1,0.1-0.1,0-0.2C288.5,219.7,288.5,219.5,288.5,219.4z
				 M292.7,234.6c-0.2,0.1-0.4,0.1-0.6,0.2c0,0-0.1,0.1-0.1,0.1c0,0.2,0.1,0.4,0.1,0.6c0.2-0.1,0.5-0.2,0.7-0.3
				C292.8,235,292.8,234.8,292.7,234.6z M285.6,225c0,1.2,1.7,2.9,2.7,2.9C286.5,226.9,286,226.3,285.6,225z M292.4,237
				c0.3-0.1,0.6-0.2,0.9-0.2c-0.1-0.2-0.1-0.3-0.2-0.5c-0.3,0.1-0.5,0.1-0.8,0.2C292.4,236.6,292.4,236.8,292.4,237z M290.1,235.1
				c0,0.2,0,0.4,0.1,0.6c0.2,0,0.5,0,0.7,0c0-0.2-0.1-0.4-0.1-0.7C290.5,235.1,290.3,235.1,290.1,235.1z M286.2,235.3
				c-0.4-0.1-0.7-0.3-1.1-0.4c-0.1,0.1-0.1,0.3-0.1,0.4c0.4,0.1,0.8,0.2,1.1,0.3C286.1,235.5,286.2,235.4,286.2,235.3z M293.6,234.9
				c0.3-0.1,0.5-0.3,0.7-0.4c-0.1-0.2-0.1-0.3-0.2-0.5c-0.3,0.1-0.5,0.2-0.7,0.3C293.5,234.6,293.5,234.7,293.6,234.9z M296.1,232.1
				c1.1-0.6,3.3-3.9,3.2-5C298.7,229.1,297.6,230.7,296.1,232.1z M298.2,230.6c-0.2,0.3-0.4,0.5-0.6,0.8c0.1,0.1,0.2,0.2,0.4,0.3
				c0.2-0.3,0.4-0.5,0.6-0.8C298.4,230.8,298.3,230.7,298.2,230.6z M299.6,230.3c0.2-0.3,0.4-0.6,0.5-0.9c-0.2-0.1-0.3-0.1-0.4-0.2
				c-0.2,0.3-0.3,0.6-0.4,0.8C299.4,230.1,299.5,230.2,299.6,230.3z M291.2,234.2C291.2,234.2,291.2,234.2,291.2,234.2
				c0-0.2,0-0.4,0-0.6c-0.2,0.2-0.2,0.3-0.2,0.5c0-0.1,0-0.1-0.1-0.2c-0.1,0.2-0.2,0.3-0.3,0.5c0-0.2,0-0.3,0-0.5
				c-0.2,0.1-0.2,0.3-0.2,0.5c0-0.1,0-0.1-0.1-0.1c0,0-0.1,0-0.1,0c0-0.1,0-0.2,0.1-0.3c-0.2,0.1-0.3,0.3-0.2,0.5
				c0.4,0,0.7-0.1,1.1-0.1c0,0,0.1-0.1,0.1-0.1c0-0.1,0-0.2,0-0.3C291.3,234,291.3,234.1,291.2,234.2z M283.7,232.9
				c0.2-0.3,0.4-0.6,0.7-1c-0.1,0-0.1-0.1-0.1-0.1c-0.1,0.2-0.3,0.5-0.4,0.7c0,0,0,0,0,0c0-0.3,0-0.3,0-0.4c-0.2,0.1,0,0.2,0,0.4
				c0-0.1-0.1-0.1-0.1-0.2c0,0,0,0,0,0c0,0.1,0,0.1,0,0.2c-0.1,0-0.1,0-0.1,0c0-0.1-0.1-0.3-0.1-0.5c-0.1,0.2-0.2,0.3-0.3,0.5
				C283.3,232.6,283.5,232.8,283.7,232.9z M286.4,234.8c-0.4-0.1-0.8-0.2-1.1-0.4c0,0.1-0.1,0.2-0.1,0.4c0.4,0.1,0.7,0.3,1.1,0.4
				C286.3,235,286.3,234.9,286.4,234.8z M301,233.4C301,233.4,301,233.3,301,233.4c-0.1,0.1-0.1,0.2-0.1,0.3c-0.1,0-0.1,0-0.2,0.2
				c-0.1,0.1-0.2,0.2-0.3,0.3c0,0,0,0,0,0c0-0.1,0.1-0.1,0.1-0.2c-0.1-0.1-0.1-0.1-0.2-0.2c0-0.1,0-0.2,0-0.3
				c-0.1,0-0.1,0.1-0.1,0.1c0-0.1,0-0.1,0-0.2c0,0,0,0-0.1,0c0,0.1-0.1,0.2-0.1,0.2c0,0.2,0.1,0.4,0.1,0.6c0.1,0.2,0.2,0.2,0.4,0.1
				c0.4-0.3,0.8-0.7,1.1-1.1c0,0,0-0.1,0.1-0.1c0,0,0,0,0,0c-0.2,0.2-0.3,0.4-0.5,0.6C301.1,233.5,301.1,233.4,301,233.4z
				 M284.4,225.4c-0.8,0.4-1.7,0.7-2.7,0.7c0,0,0,0.1,0,0.1c0.4,0,0.8-0.1,1.1-0.2c0,0,0,0,0,0c-0.1,0-0.2,0.1-0.2,0.1
				c-0.1,0-0.2,0-0.2,0.1C283.2,226.3,283.8,226,284.4,225.4z M297.5,231.5c-0.2,0.2-0.4,0.4-0.6,0.6c0.1,0.1,0.2,0.2,0.4,0.3
				c0.2-0.2,0.4-0.4,0.6-0.6C297.7,231.7,297.6,231.6,297.5,231.5z M286.5,210.1C286.5,210.1,286.5,210.1,286.5,210.1
				c0.1,0,0.1-0.1,0.1-0.2c0-0.2-0.1-0.4-0.1-0.6c0,0,0,0,0,0c0.1,0.2,0.1,0.4,0.2,0.6c0,0,0,0,0.1,0c0-0.1,0.1-0.1,0.1-0.2
				c0-0.2-0.1-0.4-0.1-0.6c0-0.1,0-0.1,0-0.2c0,0,0,0,0,0c0,0.1,0.1,0.2,0.1,0.3c0.2-0.1,0.2-0.3,0.1-0.4c-0.2,0-0.4,0.1-0.6,0.1
				C286.4,209.5,286.4,209.8,286.5,210.1z M287.4,235c-0.3-0.1-0.6-0.1-0.9-0.2c0,0.1-0.1,0.2-0.1,0.4c0.3,0.1,0.6,0.1,1,0.2
				C287.4,235.3,287.4,235.1,287.4,235z M295.1,234.1c-0.1-0.1-0.2-0.3-0.3-0.4c-0.2,0.1-0.4,0.2-0.6,0.3c0.1,0.2,0.2,0.3,0.2,0.5
				C294.7,234.3,294.9,234.2,295.1,234.1z M283.6,234.2c-0.1,0.1-0.1,0.3-0.2,0.4c0.3,0.1,0.5,0.2,0.8,0.4c0.1-0.1,0.1-0.3,0.2-0.4
				C284.1,234.4,283.8,234.3,283.6,234.2z M286.2,235.7c0.3,0.1,0.6,0.2,1,0.2c0-0.1,0.1-0.3,0.1-0.4c-0.3-0.1-0.6-0.2-0.9-0.2
				C286.3,235.5,286.3,235.6,286.2,235.7z M297.6,232.9c-0.3,0.2-0.5,0.4-0.7,0.6c0.1,0.1,0.1,0.2,0.2,0.3c0.3-0.2,0.5-0.4,0.8-0.7
				C297.8,233.1,297.7,233,297.6,232.9z M295.9,233.6c0.1-0.1,0.2-0.1,0.3-0.2c0.4-0.3,0.4-0.3,0.1-0.7c0,0,0,0,0,0
				c-0.2,0.2-0.4,0.3-0.6,0.5C295.7,233.3,295.8,233.5,295.9,233.6z M297.2,232.5c-0.1-0.1-0.2-0.2-0.3-0.4
				c-0.2,0.2-0.4,0.3-0.6,0.5c0.1,0.1,0.2,0.3,0.2,0.4C296.8,232.9,297,232.7,297.2,232.5z M291.1,237.2c0.2,0,0.3-0.1,0.4-0.1
				c0-0.3-0.1-0.5-0.1-0.8c-0.1,0-0.3,0-0.4,0.1C291.1,236.6,291.1,236.9,291.1,237.2z M291.7,237.1c0.2,0,0.4-0.1,0.7-0.1
				c0-0.2-0.1-0.4-0.1-0.5c-0.2,0-0.4,0.1-0.6,0.1C291.7,236.8,291.7,236.9,291.7,237.1z M298.7,230.9c0.1,0.1,0.2,0.2,0.3,0.2
				c0.2-0.3,0.4-0.5,0.5-0.7c-0.1-0.1-0.2-0.2-0.3-0.3C299,230.4,298.9,230.6,298.7,230.9z M294.1,236.5c-0.1-0.2-0.1-0.3-0.2-0.5
				c-0.2,0.1-0.4,0.1-0.6,0.2c0,0.2,0.1,0.3,0.1,0.5C293.6,236.6,293.8,236.6,294.1,236.5z M298.6,231c-0.2,0.3-0.4,0.5-0.6,0.8
				c0.1,0.1,0.2,0.1,0.3,0.2c0.2-0.2,0.4-0.5,0.6-0.7C298.8,231.2,298.7,231.1,298.6,231z M298,233.1c0.2-0.2,0.5-0.5,0.7-0.7
				c-0.1-0.1-0.2-0.2-0.3-0.2c-0.2,0.2-0.4,0.4-0.7,0.7C297.8,232.9,297.9,233,298,233.1z M293,235.2c0.2-0.1,0.3-0.1,0.5-0.2
				c0,0,0.1-0.1,0.1-0.1c0-0.2-0.1-0.3-0.2-0.5c-0.2,0.1-0.3,0.1-0.5,0.2C292.9,234.8,292.9,235,293,235.2z M295.5,233.2
				c-0.2,0.1-0.4,0.2-0.6,0.4c0.1,0.1,0.2,0.3,0.3,0.4c0.2-0.1,0.4-0.3,0.6-0.4C295.7,233.5,295.6,233.4,295.5,233.2z M283.9,225.4
				c-0.4,0.1-0.9,0.2-1.4,0.3c-0.5,0.1-0.9,0.1-1.4,0.1C281.3,226.1,283.4,225.8,283.9,225.4z M281.8,232.3
				c-0.2-0.2-0.4-0.4-0.6-0.7c-0.1,0.1-0.2,0.2-0.3,0.4c0.2,0.2,0.4,0.4,0.6,0.6C281.6,232.5,281.7,232.4,281.8,232.3z M300.5,229.7
				c-0.1-0.1-0.2-0.1-0.3-0.2c-0.2,0.3-0.3,0.6-0.5,0.9c0.1,0.1,0.2,0.1,0.3,0.2C300.2,230.3,300.3,230,300.5,229.7z M287.5,235
				c0,0.2,0,0.3-0.1,0.4c0.2,0,0.5,0.1,0.7,0.1c0-0.2,0-0.3,0-0.5C288,235.1,287.8,235,287.5,235z M297.9,231.9
				c-0.2,0.2-0.4,0.4-0.6,0.6c0.1,0.1,0.2,0.2,0.2,0.2c0.2-0.2,0.4-0.4,0.7-0.7C298.1,232,298.1,231.9,297.9,231.9z M289.8,233.8
				c-0.3,0.2-0.1,0.5-0.1,0.7c0.2,0,0.4,0,0.5,0c0-0.3-0.1-0.5-0.1-0.8c-0.3,0.2-0.1,0.4-0.2,0.7C289.8,234.2,289.8,234,289.8,233.8
				z M299.7,230.5c-0.2,0.3-0.4,0.5-0.5,0.7c0.1,0.1,0.2,0.2,0.2,0.2c0.2-0.3,0.4-0.5,0.5-0.7C299.8,230.6,299.8,230.6,299.7,230.5z
				 M287.3,207.6C287.3,207.6,287.4,207.6,287.3,207.6C287.4,207.6,287.4,207.5,287.3,207.6c-0.1-0.7,0-1.2,0.1-1.8
				c0.2-0.5,0.1-1-0.1-1.5c-0.1-0.3-0.2-0.5-0.4-0.8c0,0-0.1,0-0.1,0c0,0,0,0.1,0,0.1c0.5,0.7,0.6,1.4,0.4,2.2
				c-0.1,0.3-0.1,0.7-0.2,1C287.2,207.1,287.2,207.4,287.3,207.6z M297.3,232.6c-0.2,0.2-0.4,0.4-0.7,0.6c0.1,0.1,0.1,0.2,0.2,0.3
				c0.2-0.2,0.5-0.4,0.7-0.6C297.4,232.7,297.4,232.7,297.3,232.6z M288.3,235.6c0.2,0,0.4,0,0.6,0.1c0-0.2,0.1-0.3,0.1-0.5
				c-0.2,0-0.4,0-0.6,0C288.3,235.3,288.3,235.4,288.3,235.6z M277.1,240.4C277.1,240.4,277.1,240.4,277.1,240.4
				c0.1,0,0.2,0,0.2-0.1c0.3-0.3,0.6-0.6,0.8-1c0.1-0.2,0.1-0.3,0-0.5C277.8,239.3,277.6,239.9,277.1,240.4z M288.2,235.7
				c-0.3,0-0.5-0.1-0.7-0.1c0,0.1,0,0.3-0.1,0.4c0.3,0,0.5,0.1,0.8,0.1C288.1,236,288.1,235.9,288.2,235.7z M283.6,234
				c0.3,0.1,0.5,0.3,0.8,0.4c0.1-0.1,0.1-0.2,0.2-0.3c-0.3-0.1-0.5-0.3-0.8-0.4C283.7,233.8,283.7,233.9,283.6,234z M292.1,242
				c0.4,0.7,0.5,1.5,0.3,2.2C292.8,243.6,292.7,242.3,292.1,242z M300.4,210.4C300.4,210.4,300.4,210.3,300.4,210.4
				c-0.1,0-0.3,0.1-0.4,0.2c-0.3,0.2-0.6,0.5-0.8,0.8c-0.1,0.2,0,0.3,0.1,0.3c0-0.1,0-0.2,0.1-0.2c0.3-0.3,0.6-0.7,0.8-1
				C300.3,210.5,300.4,210.4,300.4,210.4z M295.1,217c0,0.1,0.2,0.4,0.5,0.5c0.1-0.2,0.2-0.4,0.4-0.6c0,0,0,0,0,0
				c-0.1,0.1-0.2,0.2-0.3,0.3c-0.1-0.1-0.1-0.2-0.2-0.3c0,0.1,0,0.2-0.1,0.2c0,0,0,0,0,0c0-0.1-0.1-0.2-0.1-0.3c0,0,0,0-0.1,0
				c0,0.1,0,0.2,0,0.3C295.1,217,295.1,217,295.1,217z M284.4,234.6c-0.1,0.1-0.1,0.3-0.2,0.4c0.2,0.1,0.4,0.2,0.6,0.3
				c0-0.1,0.1-0.3,0.1-0.4C284.8,234.8,284.6,234.7,284.4,234.6z M296.2,234c0.1,0.1,0.2,0.2,0.3,0.3c0.2-0.1,0.4-0.3,0.5-0.4
				c-0.1-0.1-0.2-0.2-0.2-0.3C296.6,233.7,296.4,233.9,296.2,234z M294,218.2C293.9,218.2,293.9,218.2,294,218.2
				c-0.5,0.6-1,1.1-1.6,1.5c0,0,0,0.1-0.1,0.1c0,0,0,0,0,0C293,219.4,293.6,218.9,294,218.2z M303.4,223.4c0.2,0,0.4,0,0.5-0.1
				c0-0.1,0-0.3-0.1-0.4c0,0,0-0.1-0.1-0.1c0,0-0.1,0.1-0.1,0.1c0,0.1,0,0.2,0,0.3c0,0,0,0,0,0c0-0.1,0-0.3-0.1-0.4
				c-0.1,0-0.2,0-0.3,0C303.4,223,303.4,223.2,303.4,223.4C303.4,223.4,303.4,223.4,303.4,223.4z M299.6,210.5
				c0.2-0.1,0.2-0.1,0.2-0.3c0-0.3-0.1-0.5-0.1-0.8c0-0.1,0-0.1-0.1-0.2C299.4,209.6,299.7,210,299.6,210.5z M279.1,224.8
				C279.1,224.8,279.1,224.8,279.1,224.8c-0.1,0.1-0.2,0.1-0.2,0.2c0,0.5,0.1,0.9,0.2,1.3c0,0,0,0,0.1,0.1c0,0,0-0.1,0-0.1
				c0-0.2,0-0.3-0.1-0.5c0,0-0.1-0.1-0.1-0.1c0-0.1,0.1-0.2,0.2-0.4c-0.1,0.1-0.1,0.1-0.2,0.1c0.1-0.2,0.1-0.3,0.2-0.4c0,0,0,0,0,0
				c0,0-0.1,0.1-0.2,0.1C279,225,279.1,224.9,279.1,224.8z M286.9,237.1c-0.3-0.1-0.6-0.2-1-0.3c0,0.1-0.1,0.1-0.1,0.2
				c0.3,0.1,0.7,0.2,1,0.2C286.8,237.2,286.8,237.2,286.9,237.1z M288.2,236.1c0.2,0,0.4,0,0.6,0.1c0-0.1,0-0.3,0.1-0.4
				c-0.2,0-0.4,0-0.6-0.1C288.2,235.9,288.2,236,288.2,236.1z M296.2,233.9c0.2-0.1,0.4-0.3,0.6-0.4c-0.1-0.1-0.1-0.2-0.2-0.3
				c-0.2,0.2-0.4,0.3-0.6,0.5C296.1,233.8,296.1,233.8,296.2,233.9z M290,235.1c-0.1,0-0.3,0-0.4,0c0,0.2,0,0.4,0,0.5
				c0.2,0,0.3,0,0.4,0C290,235.5,290,235.3,290,235.1z M289,235.6c0.2,0,0.3,0,0.5,0c0-0.2,0-0.4,0-0.5c-0.2,0-0.3,0-0.4,0
				C289,235.3,289,235.5,289,235.6z M293.4,237C293.4,236.9,293.4,236.9,293.4,237C293.4,236.9,293.4,236.9,293.4,237
				c-0.6,0-1.1,0.2-1.6,0.3c0,0-0.1,0.1-0.1,0.1C292.3,237.3,292.9,237.2,293.4,237z M296.1,234c-0.1-0.1-0.1-0.2-0.2-0.2
				c-0.2,0.1-0.4,0.3-0.6,0.4c0.1,0.1,0.1,0.2,0.2,0.3C295.7,234.3,295.9,234.1,296.1,234z M276.1,227.2
				C276.1,227.2,276.1,227.2,276.1,227.2c0.1-0.1,0.1-0.1,0.1-0.1c-0.1-0.5-0.2-1.1-0.2-1.6c0,0-0.1-0.1-0.1-0.1c0,0,0,0.1,0,0.1
				c0.1,0.4,0.1,0.8,0.2,1.2C276,226.9,276,227.1,276.1,227.2z M279.5,229C279.6,229,279.6,229,279.5,229c0-0.1,0-0.1,0-0.2
				c-0.1-0.3-0.2-0.6-0.4-0.9c0,0,0-0.1,0-0.1c0.2,0,0-0.1,0-0.2c-0.2-0.3-0.3-0.6-0.4-0.9c0-0.1,0-0.1-0.1-0.2c0,0,0,0-0.1,0
				C278.8,227.4,279.1,228.3,279.5,229z M299.4,210.7C299.4,210.7,299.4,210.8,299.4,210.7c0.1,0,0.2-0.1,0.2-0.2
				c0-0.3-0.1-0.6-0.1-0.9C299.2,210,299.4,210.4,299.4,210.7z M295.2,234.2c-0.2,0.1-0.5,0.3-0.7,0.4c0.1,0.1,0.1,0.2,0.2,0.3
				c0.1-0.1,0.1-0.2,0.1-0.2c0.1-0.1,0.1-0.1,0.2-0.1c0.1,0,0.2,0,0.4-0.1C295.3,234.4,295.3,234.3,295.2,234.2z M289.6,236.3
				c0.2,0,0.3,0,0.5,0c0-0.1,0-0.3-0.1-0.4c-0.1,0-0.3,0-0.4,0C289.6,236,289.6,236.1,289.6,236.3z M293.3,222.7
				c0.1,0.2,0.2,0,0.3,0c0.1,0,0.2,0,0.4,0c-0.2,0.2-0.1,0.3,0.1,0.4c-0.1,0-0.2,0.1-0.1,0.2c0,0,0.1,0.1,0.1,0.1c0,0,0,0,0.1,0
				c0-0.2-0.1-0.4-0.1-0.6c0,0,0,0,0,0c0,0.1,0,0.1,0.1,0.2c0,0,0,0,0,0c0-0.1,0-0.2,0-0.3C293.8,222.6,293.6,222.7,293.3,222.7z
				 M294.3,218.3c-0.2-0.1-0.2-0.1-0.3,0.1c-0.2,0.3-0.4,0.6-0.6,0.8c0,0-0.1,0.1-0.1,0.1c0,0,0,0,0,0
				C293.7,219.1,294,218.7,294.3,218.3z M284.5,234.5c0.2,0.1,0.4,0.2,0.5,0.2c0.1-0.1,0.1-0.2,0.1-0.3c-0.2-0.1-0.3-0.1-0.5-0.2
				C284.6,234.3,284.6,234.4,284.5,234.5z M290.4,237.6c0.4,0,0.7-0.1,1.1-0.1c0,0,0.1-0.1,0.1-0.1c0,0-0.1-0.1-0.1-0.1
				c-0.3,0-0.7,0.1-1,0.1C290.3,237.4,290.3,237.4,290.4,237.6z M289,235.8c0,0.1,0,0.3,0,0.4c0.2,0,0.3,0,0.5,0c0-0.2,0-0.3,0-0.4
				c0,0-0.1,0-0.1,0C289.2,235.8,289.1,235.8,289,235.8z M292.4,226.6c0.2,0,0.4-0.3,0.4-0.4c0.1,0.1,0.2,0.1,0.3,0.2
				c0-0.1,0.1-0.1,0.1-0.2c-0.1-0.1-0.3-0.3-0.4-0.4C292.7,226.1,292.6,226.4,292.4,226.6z M288.2,234.8
				C288.3,234.7,288.3,234.7,288.2,234.8c-0.6-0.2-1.3-0.4-2-0.5C286.9,234.5,287.6,234.7,288.2,234.8z M298.5,229.7L298.5,229.7
				c0.1-0.1,0.3-0.3,0.3-0.4c0.2-0.4,0.3-0.9,0.5-1.3c0-0.1,0.1-0.2,0.1-0.4C299.1,228.4,298.8,229,298.5,229.7z M292.7,237.7
				c-1.1,0.2-2.2,0.4-3.4,0.4C290.4,238.1,291.6,238,292.7,237.7z M286.9,237.3c0.3,0.1,0.6,0.1,0.8,0.1c0-0.1,0-0.1,0.1-0.2
				c-0.3-0.1-0.5-0.1-0.8-0.2C287,237.2,286.9,237.2,286.9,237.3z M285.6,220.9c0.2,0.1,0.3,0.2,0.5,0.4c0,0,0.1-0.1,0.1-0.2
				c-0.2-0.2-0.3-0.3-0.5-0.5c0,0-0.1,0.1-0.1,0.1C285.7,220.8,285.7,220.8,285.6,220.9z M289.7,227.9c0.7,0,1.4-0.3,1.9-0.7
				C291,227.6,290.4,227.8,289.7,227.9z M292.2,219.3c0.3-0.5,0.6-1,0.9-1.5c-0.1,0-0.1,0-0.1,0.1
				C292.6,218.3,292.4,218.8,292.2,219.3C292.2,219.3,292.2,219.3,292.2,219.3z M300.5,210.2c0.3-0.2,0.5-0.4,0.7-0.7
				c0,0,0-0.1,0-0.1c0,0,0,0,0,0c-0.2,0.2-0.4,0.4-0.6,0.6C300.5,209.9,300.4,210,300.5,210.2z M299.3,210.1
				C299.3,210.1,299.3,210.1,299.3,210.1c-0.1,0.1-0.2,0.2-0.2,0.3c0,0.2,0.1,0.4,0.1,0.7C299.4,210.7,299.2,210.4,299.3,210.1z
				 M281.4,218.9c-0.2-0.1-0.4-0.2-0.6-0.3c0.1,0.3,0.4,0.3,0.5,0.5c0.1-0.1,0.2-0.2,0.3-0.3c-0.1-0.1-0.2-0.1-0.3-0.1
				C281.4,218.7,281.4,218.8,281.4,218.9z M302.7,225.9c0.2-0.5,0.2-0.9,0.2-1.4c0,0,0-0.1-0.1-0.1c0,0-0.1,0.1-0.1,0.1
				c0,0.1,0,0.2,0,0.4C302.8,225.2,302.8,225.5,302.7,225.9z M288.6,237.4c-0.2,0-0.4,0-0.6-0.1c-0.2,0-0.2,0-0.2,0.2
				c0.2,0,0.5,0.1,0.8,0.1C288.6,237.5,288.6,237.4,288.6,237.4z M300.9,231.4C300.8,231.4,300.8,231.4,300.9,231.4
				c-0.5,0.7-1,1.3-1.4,2c0,0,0,0,0,0C299.9,232.8,300.4,232.1,300.9,231.4z M285.2,221.4c0.2,0.1,0.3,0.2,0.5,0.3
				c0-0.1,0.1-0.1,0.1-0.2c-0.2-0.2-0.3-0.3-0.5-0.4C285.4,221.2,285.3,221.3,285.2,221.4z M290.3,237.6c0-0.2,0-0.2-0.1-0.2
				c-0.2,0-0.3,0-0.5,0c-0.1,0-0.2,0-0.1,0.2C289.8,237.6,290,237.6,290.3,237.6z M282.1,218.1C282.1,218.1,282.1,218.1,282.1,218.1
				c0.2-0.2,0.3-0.3,0.4-0.5c0,0,0-0.1,0-0.1c0,0-0.1,0-0.1,0c0,0-0.1,0.1-0.1,0.1c-0.1,0-0.1,0-0.2-0.1c0,0.1,0,0.2,0,0.3
				c-0.1,0-0.1,0-0.2-0.1C282,217.9,282.1,218,282.1,218.1z M288.1,214.6c-0.1,0.1-0.2,0.2-0.4,0.4c0-0.1-0.1-0.1-0.1-0.2
				c-0.1,0.2,0,0.3,0.1,0.2c0.1,0,0.3,0,0.5-0.1C288.1,214.8,288.1,214.7,288.1,214.6z M280.6,230.4
				C280.6,230.4,280.6,230.4,280.6,230.4c0.1,0,0.1-0.1,0.1-0.1c-0.2-0.3-0.4-0.6-0.6-0.9c0,0.1,0,0.3,0.1,0.4
				C280.3,230,280.4,230.2,280.6,230.4z M276.7,229.1C276.7,229.1,276.7,229.1,276.7,229.1c-0.2-0.6-0.3-1.2-0.5-1.8
				c0,0-0.1,0-0.1,0C276.3,227.9,276.5,228.5,276.7,229.1z M286.1,226.8c0.1,0.2-0.1,0.4,0.2,0.5c0-0.1-0.1-0.2-0.1-0.3
				c0,0,0.1,0,0.1,0c0,0,0,0,0,0c-0.1-0.1-0.2-0.2-0.3-0.3c-0.2,0.1-0.2,0.3-0.2,0.4c0,0,0.1,0,0.1,0.1
				C286,227,286.1,226.9,286.1,226.8z M296.6,224c0.7,0,1.5-0.2,1.7-0.4C297.7,223.7,297.1,223.9,296.6,224z M288.7,237.6
				c0.2,0,0.5,0,0.7,0c0-0.1,0-0.1,0-0.2c-0.2,0-0.4,0-0.5,0C288.7,237.4,288.7,237.4,288.7,237.6z M301.8,232.8
				c-0.2-0.1-0.3-0.2-0.5-0.3c0,0.1,0.1,0.2,0.1,0.3c0,0.1,0,0.2,0,0.3c0,0,0,0,0.1,0c0.1-0.1,0.1-0.2,0.2-0.2c0,0.1,0,0.1,0.1,0.1
				C301.8,232.9,301.8,232.8,301.8,232.8z M288.1,219.4c0,0.2,0.1,0.4,0.1,0.6c0,0,0.1,0.1,0.1,0.1c0,0,0.1-0.1,0.1-0.1
				c0-0.2,0-0.4-0.1-0.6C288.2,219.3,288.1,219.3,288.1,219.4z M282.5,231.6c0-0.1,0-0.2,0.1-0.3c0.3-0.1,0.1-0.2,0.1-0.4
				C282.3,231.2,282.3,231.2,282.5,231.6z M273.2,212.6c-0.2-0.4-0.4-0.7-0.6-1.1C272.5,211.7,272.9,212.3,273.2,212.6z
				 M289.7,228.2C289.7,228.2,289.7,228.2,289.7,228.2c-0.1-0.1-0.3-0.1-0.4-0.1c-0.1,0-0.1,0.1-0.1,0.1c0,0.1,0,0.2,0,0.3
				c0,0,0,0,0.1,0C289.3,228.5,289.4,228.2,289.7,228.2z M286.1,221.3c-0.2-0.1-0.3-0.2-0.5-0.4c0,0-0.1,0.1-0.1,0.1
				c0.2,0.1,0.3,0.2,0.5,0.4C286,221.4,286,221.4,286.1,221.3z M290.3,233.3c-0.2,0.2-0.2,0.4-0.1,0.7
				C290.5,233.8,290.3,233.6,290.3,233.3z M293.4,236.9C293.4,236.9,293.4,236.9,293.4,236.9c0.5-0.1,1-0.3,1.5-0.5c0,0,0,0,0,0
				C294.4,236.5,293.9,236.7,293.4,236.9z M294.2,233.4c-0.5,0.2-1,0.5-1.5,0.7C293.3,233.9,293.8,233.8,294.2,233.4z M284.7,233.8
				C284.7,233.8,284.7,233.8,284.7,233.8c-0.2-0.2-0.5-0.4-0.8-0.6C283.9,233.4,284.5,233.8,284.7,233.8z M287.3,205.6
				C287.3,205.6,287.3,205.6,287.3,205.6c-0.3,0.3-0.2,0.8-0.4,1.1c0,0,0.1,0,0.1,0C287.2,206.4,287.2,206,287.3,205.6z
				 M301.1,234.7c0.3-0.1,0.6-0.2,1-0.1c-0.1-0.1-0.3-0.2-0.4-0.2c0,0-0.1,0-0.1,0C301.5,234.5,301.3,234.6,301.1,234.7z
				 M294.6,216.6c-0.1-0.1-0.1-0.2-0.1-0.3c-0.1,0.1-0.1,0.1-0.2,0.2c0.2,0.1,0.3,0.3,0.5,0.4c0,0,0,0,0.1,0c0-0.1-0.1-0.2-0.1-0.4
				c0,0,0,0-0.1,0C294.7,216.5,294.6,216.6,294.6,216.6z M305.7,222.5c0.2,0,0.4-0.1,0.7-0.1c0.1,0,0.2-0.1,0.2-0.2
				c-0.1,0.1-0.2,0.1-0.3,0.2c0,0,0-0.1,0-0.2c-0.1,0.1-0.2,0.1-0.3,0.2c0,0,0,0-0.1-0.1C305.8,222.3,305.7,222.4,305.7,222.5z
				 M292.6,220.5c-0.1,0.2-0.3,0.4-0.2,0.6c0.1-0.2,0.3-0.3,0.4-0.5C292.7,220.6,292.7,220.6,292.6,220.5z M303.3,221.5
				c0,0.1,0,0.2,0,0.3c0,0.1,0.1,0.2,0.2,0.1c0-0.2,0-0.3,0-0.5C303.5,221.4,303.4,221.5,303.3,221.5z M284.4,237.1
				c-0.5-0.2-1-0.5-1.5-0.7c0,0,0,0,0,0.1C283.4,236.7,283.9,237,284.4,237.1z M300,225.6C300,225.6,300,225.6,300,225.6
				c0.2-0.6,0.2-1.1,0.2-1.7C300.1,224.5,300,225.1,300,225.6z M281.6,218.5c0-0.1-0.1-0.2-0.1-0.3c-0.1,0.2,0,0.4,0.2,0.5
				c0.1-0.1,0.1-0.2,0.2-0.2c-0.1,0-0.2-0.1-0.2-0.1C281.6,218.4,281.7,218.4,281.6,218.5z M274.2,226.9
				C274.2,226.9,274.2,226.9,274.2,226.9c-0.1-0.2-0.1-0.4-0.2-0.7l0,0c0,0.3,0.1,0.5,0.1,0.8c0.1,0,0.2,0,0.4,0
				c-0.1-0.1-0.2-0.2-0.2-0.3c0,0,0,0,0,0C274.2,226.8,274.2,226.8,274.2,226.9z M292.3,220.9c0.1-0.1,0.2-0.3,0.3-0.4
				c-0.1,0-0.1-0.1-0.2-0.1c-0.1,0.2-0.2,0.3-0.3,0.4C292.2,220.9,292.2,220.9,292.3,220.9z M283.8,233.3
				C283.8,233.2,283.8,233.2,283.8,233.3c-0.4-0.4-0.8-0.7-1.2-1c0,0,0,0,0,0C283,232.6,283.4,232.9,283.8,233.3z M285.1,221.5
				c0.4,0.3,0.4,0.3,0.6,0.2c-0.2-0.1-0.3-0.2-0.5-0.4C285.2,221.5,285.2,221.5,285.1,221.5z M291.3,233.8
				C291.4,233.8,291.4,233.8,291.3,233.8c0-0.2,0-0.5,0-0.7c-0.3,0-0.3,0-0.3,0.2c0,0,0.1-0.1,0.2-0.1
				C291.3,233.4,291.3,233.6,291.3,233.8z M286.8,208c0.1-0.2,0.1-0.2,0-0.4c-0.1,0.2-0.2,0.4-0.3,0.6c0,0,0,0,0.1,0
				c0,0,0.1-0.1,0.1-0.2c0-0.1,0-0.2,0-0.2c0,0,0,0,0,0C286.8,207.9,286.8,208,286.8,208z M297.8,235.1
				C297.8,235.2,297.8,235.2,297.8,235.1c0.4-0.3,0.7-0.5,0.9-0.9C298.4,234.6,298.1,234.8,297.8,235.1z M290.3,228.1
				c0,0.2,0,0.3,0,0.4c0,0,0.1,0,0.1,0C290.4,228.3,290.4,228.2,290.3,228.1c-0.3,0-0.3,0-0.2,0.3
				C290.2,228.3,290.3,228.2,290.3,228.1z M290.8,238.9c0,0.1,0,0.3,0,0.4c0.1,0,0.1,0,0.2,0C291,239.2,291,239,290.8,238.9z
				 M301.7,229.8C301.6,229.8,301.6,229.8,301.7,229.8c-0.3,0.3-0.4,0.7-0.6,1.1c0,0,0,0,0.1,0C301.3,230.5,301.5,230.2,301.7,229.8
				z M278.4,238.3c-0.2,0.2-0.2,0.4-0.1,0.6C278.4,238.8,278.5,238.6,278.4,238.3z M290.2,240c0.1,0.1,0.2,0.2,0.3,0.3
				c0-0.1,0-0.2-0.1-0.2c0,0,0,0,0,0c0.1,0.2,0.2,0.3,0.4,0.5C290.7,240.2,290.6,240.1,290.2,240z M303.7,236.1
				c0.3,0.4,0.6,0.7,1,0.8C304.4,236.7,304.1,236.4,303.7,236.1z M278.5,238.5c0.1-0.2,0.3-0.3,0.1-0.5
				C278.5,238.1,278.4,238.2,278.5,238.5z M288.1,220.1c0-0.5-0.1-0.7-0.2-0.7C287.9,219.8,288,220,288.1,220.1z M292.6,226.9
				c0,0-0.1,0.1-0.1,0.2c0.1,0.1,0.2,0.1,0.3,0.2c0-0.1,0.1-0.1,0.1-0.2C292.8,227,292.7,226.9,292.6,226.9z M281.3,231.3
				C281.3,231.2,281.3,231.2,281.3,231.3c0-0.1-0.1-0.2-0.2-0.4c-0.1-0.1-0.1-0.2-0.2-0.3c0-0.1-0.1-0.1-0.1-0.2c0,0-0.1,0-0.1,0
				c0,0,0,0.1,0,0.1C280.9,230.8,281.1,231,281.3,231.3z M287.8,227.4C287.8,227.4,287.8,227.4,287.8,227.4c-0.4-0.2-0.7-0.4-1-0.7
				c0,0,0,0,0,0C287.1,227,287.5,227.2,287.8,227.4z M291.3,244.8C291.3,244.8,291.4,244.8,291.3,244.8c-0.2-0.3-0.4-0.5-0.6-0.8
				C290.8,244.4,291.1,244.7,291.3,244.8z M291.7,243.3c0.1,0.3,0.1,0.6,0.2,0.9C292,244,291.9,243.4,291.7,243.3z M293.5,226.6
				c0,0,0,0.1,0,0.2c0.1-0.1,0.1-0.1,0.2-0.2c-0.1-0.1-0.2-0.2-0.3-0.3c-0.1,0.1-0.1,0.1-0.2,0.2
				C293.3,226.5,293.4,226.5,293.5,226.6z M279.9,225.8c-0.1,0.1-0.2,0.3-0.1,0.4c0,0,0.1,0,0.2,0C280,226.1,280,226,279.9,225.8z
				 M283.9,231.7c-0.1-0.1-0.2-0.2-0.4-0.3c0,0,0,0,0,0c0.1,0.1,0.1,0.1,0.2,0.2c0,0.1,0,0.2,0,0.3c0,0,0,0,0,0
				C283.8,231.8,283.9,231.7,283.9,231.7z M291.7,241.2C291.7,241.2,291.7,241.2,291.7,241.2c0,0.1,0,0.2,0,0.2
				c0.1,0.1,0.3,0.2,0.4,0.3C292.1,241.5,291.9,241.4,291.7,241.2z M286.1,227.6c0,0.2,0.1,0.3,0.5,0.6
				C286.5,227.8,286.2,227.8,286.1,227.6z M280.9,236.4c0.1-0.1,0.1-0.1,0.1-0.2c-0.1,0-0.2-0.1-0.2-0.1c-0.1-0.1-0.2-0.2-0.2-0.2
				C280.5,236.2,280.7,236.2,280.9,236.4z M277.8,231.3C277.8,231.4,277.8,231.4,277.8,231.3c0.2,0.4,0.4,0.7,0.7,1.1c0,0,0,0,0,0
				C278.3,232,278.1,231.7,277.8,231.3z M296.9,229.5c0,0.2,0,0.4,0.2,0.4C297.2,229.7,297.1,229.6,296.9,229.5z M279.6,236.4
				c-0.1-0.3-0.2-0.4-0.5-0.3C279.3,236.2,279.5,236.3,279.6,236.4z M299.9,225.7c0,0.3-0.1,0.6-0.1,0.9
				C299.9,226.3,300,225.8,299.9,225.7z M290.7,240.2c0.2,0.2,0.4,0.3,0.5,0.5C291.3,240.4,291,240.2,290.7,240.2z M278.9,224.4
				c0,0.2,0,0.3,0,0.4c0,0,0,0,0.1,0c0-0.1,0.1-0.3,0.2-0.4C279,224.4,278.9,224.4,278.9,224.4z M286.8,206.9
				c-0.2,0.2-0.3,0.3-0.2,0.6C286.7,207.2,286.8,207.1,286.8,206.9z M279.4,235c-0.1,0.1-0.1,0.2-0.2,0.3c0,0,0,0,0.1,0
				c0,0,0-0.1,0.1-0.1c0,0.1,0.1,0.2,0.1,0.3c0,0,0,0,0.1,0C279.5,235.3,279.5,235.2,279.4,235z M290.9,233.1
				c-0.1,0.2-0.3,0.3-0.1,0.5C290.9,233.5,291.1,233.4,290.9,233.1z M300,233.5C300,233.4,300,233.4,300,233.5
				c-0.1,0-0.1,0.1-0.1,0.1c0.1,0.1,0,0.3,0.3,0.5C300.1,233.8,300.1,233.6,300,233.5z M282.6,231.9c0.2-0.2,0-0.3,0-0.5
				C282.5,231.6,282.5,231.6,282.6,231.9z M279.7,226.2c-0.1,0-0.1,0-0.2,0c0-0.1,0-0.1-0.1-0.2c0,0,0,0-0.1,0c0,0.1,0,0.2,0,0.3
				c0.1,0,0.2,0,0.3,0C279.7,226.3,279.7,226.2,279.7,226.2z M304.8,221.1c-0.2,0.3,0,0.4,0,0.6c0,0,0,0,0.1,0
				C304.9,221.6,304.8,221.4,304.8,221.1z M291.1,233.6C291,233.5,291,233.5,291.1,233.6c-0.3,0.2-0.3,0.3-0.2,0.5
				C290.9,233.8,291,233.7,291.1,233.6z M289.1,234.8c-0.3,0-0.5-0.1-0.7-0.1C288.4,234.8,288.9,234.9,289.1,234.8z M282.2,231.4
				c-0.1,0.1-0.1,0.1-0.2,0.2c0.1,0.1,0.2,0.2,0.3,0.3c0,0,0,0,0,0C282.3,231.7,282.2,231.6,282.2,231.4z M303.7,222
				c0,0.1,0,0.2,0,0.3c0,0,0,0.1,0.1,0.1c0,0,0.1-0.1,0.1-0.1c0-0.1,0-0.2,0-0.3C303.8,222,303.7,222,303.7,222z M287.3,215.1
				c-0.1-0.2-0.1-0.3-0.2-0.5c-0.1,0.2-0.1,0.4,0,0.5C287.2,215.1,287.3,215.1,287.3,215.1z M290,228.3c-0.2,0.1-0.1,0.3-0.1,0.4
				c0,0,0.1,0,0.2,0.1C290.1,228.5,290,228.4,290,228.3z M303.4,222.1c0,0,0,0.1,0,0.1c0,0.1,0.1,0.2,0.1,0.3c0-0.1,0-0.2,0.1-0.3
				C303.6,222,303.5,222,303.4,222.1z M291,242.6C291,242.6,291,242.6,291,242.6c0-0.2,0-0.4,0-0.6
				C290.9,242.2,290.9,242.4,291,242.6z M286.9,209.9c0.1-0.2,0.2-0.3,0.1-0.5C286.8,209.6,286.9,209.7,286.9,209.9z M290.3,236.3
				C290.3,236.3,290.3,236.3,290.3,236.3c0.1-0.2,0.1-0.3,0.1-0.4c0,0-0.1,0-0.2,0C290.2,236,290.2,236.2,290.3,236.3z M298.4,223.5
				c0.1,0,0.2,0,0.3-0.1c0,0,0,0,0.1-0.1c0,0,0,0-0.1-0.1c-0.1,0-0.2,0-0.4,0C298.4,223.3,298.4,223.4,298.4,223.5z M298.8,232.2
				c-0.1-0.1-0.2-0.2-0.2-0.3c0,0-0.1,0.1-0.1,0.1C298.7,232.3,298.7,232.3,298.8,232.2z M282.1,218.2c-0.1-0.1-0.2-0.1-0.3-0.2
				c-0.1,0.2,0,0.3,0.1,0.3C282,218.3,282,218.3,282.1,218.2C282.1,218.3,282.1,218.2,282.1,218.2z M301.2,233.4
				c0.2-0.2,0.2-0.2,0.1-0.4C301.1,233.2,301.1,233.2,301.2,233.4z M300.9,232.6c-0.2,0.1-0.2,0.2-0.1,0.4
				C301,232.9,300.9,232.8,300.9,232.6z M308.2,222.1c-0.2-0.1-0.3,0.1-0.4,0.2C308.1,222.4,308.2,222.3,308.2,222.1z M289.8,228.7
				c0-0.1,0-0.3-0.1-0.4C289.6,228.4,289.6,228.6,289.8,228.7z M288.5,214.7C288.5,214.7,288.5,214.7,288.5,214.7
				c-0.1,0.1-0.2,0.2-0.3,0.3c0.1,0,0.3,0,0.4-0.1c-0.1,0-0.1,0-0.2,0C288.5,214.8,288.5,214.7,288.5,214.7z M287.8,208.2
				c-0.2-0.1-0.3-0.2-0.5-0.3c0,0.1,0,0.1,0,0.2C287.4,208.2,287.6,208.2,287.8,208.2z M274.6,225.3c0-0.1,0-0.2,0-0.3
				c-0.1,0-0.1,0-0.2,0C274.3,225.2,274.5,225.2,274.6,225.3z M293.8,223.9C293.8,223.9,293.8,223.8,293.8,223.9c0-0.1,0-0.2,0-0.3
				c0,0-0.1,0-0.1-0.1c0,0.1,0,0.2,0,0.3C293.7,223.8,293.8,223.8,293.8,223.9z M303,235.1c0.2,0.1,0.2,0.4,0.5,0.4c0,0,0,0,0,0
				C303.4,235.3,303.2,235.2,303,235.1z M282.8,231.2c-0.2,0.1-0.2,0.2,0,0.4C282.9,231.5,282.9,231.5,282.8,231.2z M304.1,222
				c-0.1,0.1-0.1,0.1-0.1,0.1c0,0.1,0,0.2,0,0.3c0,0,0,0,0.1,0.1c0,0,0.1-0.1,0.1-0.1C304.1,222.2,304.1,222.1,304.1,222z
				 M282.1,235.8C282.2,235.8,282.2,235.8,282.1,235.8c-0.2-0.2-0.5-0.4-0.8-0.6c0,0,0,0,0,0.1C281.6,235.4,281.9,235.6,282.1,235.8
				z M290.6,239.5c-0.1,0.1-0.2,0.2-0.3,0.3c0,0,0.1,0,0.1,0.1C290.7,239.8,290.7,239.8,290.6,239.5z M298.1,212.1
				c0.2-0.1,0-0.3,0-0.4C297.9,211.8,297.9,211.8,298.1,212.1z M290.4,239.2c0-0.2,0-0.3-0.2-0.4
				C290.2,238.9,290.1,239.1,290.4,239.2z M291.7,239.6c0.1,0.3,0.2,0.3,0.4,0.2C292,239.7,291.9,239.6,291.7,239.6z M282.8,231.9
				c-0.2,0.1-0.1,0.3,0,0.4C282.9,232.1,282.9,232,282.8,231.9z M306.9,222.2c-0.2,0-0.2,0-0.3,0.2
				C306.7,222.4,306.8,222.4,306.9,222.2z M280.1,235.4c0-0.2,0-0.3-0.2-0.4C280,235.2,279.9,235.3,280.1,235.4z M294.6,215.8
				c0.2-0.1,0.1-0.2,0-0.4C294.5,215.6,294.5,215.7,294.6,215.8z M291.9,242c0-0.2,0-0.3-0.2-0.4C291.7,241.8,291.8,241.9,291.9,242
				z M283.1,231.4c-0.2,0.2-0.2,0.2,0,0.4C283.3,231.7,283.2,231.5,283.1,231.4z M296.6,231c-0.1-0.2,0.1-0.3-0.1-0.4
				C296.5,230.7,296.3,230.9,296.6,231z M307.2,222.2c-0.2-0.1-0.2,0.1-0.3,0.2C307.2,222.4,307.1,222.4,307.2,222.2z M280.5,235.4
				C280.4,235.5,280.4,235.5,280.5,235.4c0,0.1,0.1,0.3,0.2,0.4C280.7,235.6,280.7,235.6,280.5,235.4z M278.1,215.4
				C278.1,215.4,278.1,215.4,278.1,215.4c0.1-0.3,0-0.4-0.2-0.4C278,215.1,278,215.2,278.1,215.4z M294,216.2
				c0.1,0.1,0.1,0.1,0.2,0.2c0.1-0.1,0-0.2,0-0.3C294.1,216.1,294.1,216.2,294,216.2z M294,223.8c0-0.1,0-0.3,0-0.4
				C293.9,223.5,293.9,223.6,294,223.8z M303.2,222C303.3,222,303.3,222,303.2,222c0.1-0.2,0.1-0.3,0-0.4c0,0,0,0-0.1-0.1
				c0,0,0,0,0,0C303.2,221.7,303.2,221.8,303.2,222z M290.7,239.4C290.7,239.4,290.7,239.4,290.7,239.4c0.1-0.2,0-0.3-0.2-0.3
				C290.6,239.2,290.6,239.3,290.7,239.4z M281.5,218.1C281.5,218.1,281.5,218.1,281.5,218.1c0-0.2,0.1-0.3-0.1-0.4
				C281.5,217.8,281.5,218,281.5,218.1z M274.6,226.5C274.7,226.5,274.7,226.5,274.6,226.5c0-0.1-0.1-0.2-0.2-0.4
				C274.4,226.4,274.5,226.5,274.6,226.5z M298.6,223.2c0.2,0,0.2,0,0.2-0.1c0,0-0.1-0.1-0.1-0.1C298.7,223,298.7,223.1,298.6,223.2
				z M290.9,238.2c0.2,0.1,0.3,0.1,0.4,0.2C291.3,238.2,291.2,238.1,290.9,238.2z M282.8,232.3c0.1,0,0.1,0.1,0.2,0.1
				c0-0.1,0.1-0.3,0.1-0.4c0,0,0,0-0.1,0C283,232.1,282.9,232.2,282.8,232.3z M279.2,235.3c-0.1,0.1-0.1,0.3,0.1,0.4
				C279.3,235.6,279.2,235.4,279.2,235.3z M293.5,214.3c-0.2-0.1-0.4-0.2-0.6-0.2c0,0,0,0,0,0.1
				C293.1,214.2,293.3,214.2,293.5,214.3z M296.8,230.4C296.8,230.4,296.8,230.4,296.8,230.4c0.1-0.2,0.1-0.3-0.2-0.3
				C296.7,230.2,296.8,230.3,296.8,230.4z M279.7,237.4c0.2,0,0.4,0,0.6,0.1c0,0,0,0,0-0.1C280.1,237.4,279.9,237.2,279.7,237.4z
				 M302.3,233.1C302.3,233.1,302.3,233.1,302.3,233.1c-0.2,0.2-0.2,0.4-0.3,0.6c0,0,0,0,0,0C302.1,233.5,302.2,233.3,302.3,233.1z
				 M291,233.6C291.1,233.6,291.1,233.6,291,233.6c0.1-0.1,0.2-0.2,0.2-0.3c0,0-0.1,0-0.1,0C291.1,233.4,291.1,233.5,291,233.6z
				 M294.8,215.4c0.1,0.2,0.1,0.3,0.2,0.5C295,215.7,295,215.5,294.8,215.4z M273.9,212.6C273.9,212.6,273.9,212.6,273.9,212.6
				c0,0.3,0.1,0.4,0.3,0.4C274.1,212.8,274,212.7,273.9,212.6z M290.9,234.5C290.9,234.6,290.9,234.6,290.9,234.5
				c0.3,0,0.6-0.1,0.9-0.1c0,0,0,0,0-0.1C291.5,234.4,291.2,234.5,290.9,234.5z M292.8,226.9c0.1,0,0.1,0.1,0.2,0.1
				c0,0,0.1-0.1,0.1-0.2c-0.1,0-0.1-0.1-0.2-0.1C292.9,226.8,292.9,226.8,292.8,226.9z M274.6,225.5c0.1-0.2-0.1-0.2-0.2-0.3
				C274.3,225.4,274.5,225.4,274.6,225.5z M289.8,233.5C289.7,233.5,289.7,233.5,289.8,233.5c-0.1,0.1-0.3,0.1-0.2,0.4
				C289.7,233.7,289.7,233.6,289.8,233.5z M276.3,215.1C276.4,215.1,276.4,215.1,276.3,215.1c0.1,0,0.2-0.1,0.3-0.1c0,0,0-0.1,0-0.1
				C276.5,214.9,276.4,215,276.3,215.1z M283.6,231.7c-0.2,0.2,0,0.3,0,0.4C283.8,232,283.7,231.9,283.6,231.7z M293,226.6
				c0.1,0.1,0.2,0.1,0.3,0c-0.1,0-0.1-0.1-0.2-0.1C293.1,226.5,293,226.6,293,226.6z M283.2,231.2c-0.2,0.2,0,0.3,0,0.4
				C283.4,231.4,283.3,231.3,283.2,231.2z M296.3,230.8c0-0.2,0.1-0.3-0.1-0.4C296.3,230.5,296.1,230.7,296.3,230.8z M291.7,239.6
				c-0.1-0.2-0.2-0.1-0.4-0.1C291.4,239.5,291.6,239.6,291.7,239.6z M294.5,216.1C294.5,216.1,294.5,216.1,294.5,216.1
				c0.1-0.1,0.1-0.2,0-0.4C294.3,215.8,294.3,215.8,294.5,216.1z M290.6,238.5c0-0.3,0-0.3-0.3-0.2
				C290.4,238.3,290.5,238.4,290.6,238.5z M308.3,222.3c0.2,0,0.2,0,0.3-0.2C308.5,222.1,308.4,222.2,308.3,222.3z M289.8,233.8
				C289.8,233.8,289.8,233.8,289.8,233.8c0.2-0.2,0.3-0.2,0.2-0.4C289.9,233.5,289.8,233.6,289.8,233.8z M294.7,236.6
				C294.7,236.6,294.7,236.6,294.7,236.6c-0.3,0-0.5,0.1-0.7,0.2c0,0,0,0,0,0C294.2,236.8,294.4,236.7,294.7,236.6z M288.9,228.5
				C288.9,228.5,288.9,228.5,288.9,228.5c0.1-0.1,0.1-0.2,0.2-0.3c-0.1,0-0.2,0-0.2,0C288.9,228.3,288.9,228.4,288.9,228.5z
				 M290.2,228.7c0.2-0.1,0.2-0.1,0-0.3C290.2,228.5,290.2,228.6,290.2,228.7z M284.5,237.2C284.5,237.2,284.5,237.2,284.5,237.2
				c0.2,0.1,0.5,0.2,0.7,0.3c0,0,0,0,0,0C285,237.3,284.7,237.2,284.5,237.2z M278.8,238C278.8,238,278.8,238,278.8,238
				c0.1-0.1,0.3-0.1,0.1-0.3C278.8,237.8,278.8,237.9,278.8,238z M297.8,212C297.8,212,297.8,212.1,297.8,212
				c-0.2,0.1-0.1,0.2-0.1,0.3c0,0,0,0,0.1,0c0-0.1,0-0.1,0-0.2C297.9,212.1,297.8,212.1,297.8,212z M291.1,242.8
				C291.1,242.8,291.1,242.9,291.1,242.8c0,0.2,0,0.3,0,0.4c0,0,0.1,0,0.1,0C291.1,243.1,291.1,243,291.1,242.8z M274.5,225.8
				c0.1-0.2-0.1-0.2-0.2-0.3c0,0,0,0,0,0C274.4,225.7,274.5,225.7,274.5,225.8z M293.6,223.1c0.1,0,0.1,0,0.1-0.1c0-0.1,0-0.1,0-0.2
				c0,0-0.1,0-0.2,0C293.6,222.9,293.6,223,293.6,223.1z M307.5,222.1c-0.2-0.1-0.2,0.1-0.3,0.2
				C307.5,222.4,307.5,222.3,307.5,222.1z M299,231.4c0.1,0.1,0.2,0.1,0.3,0.2c0,0,0,0,0.1,0c0,0,0-0.1-0.1-0.1
				C299.2,231.4,299.1,231.3,299,231.4z M273.8,225.8C273.9,225.8,273.9,225.8,273.8,225.8c0-0.1-0.1-0.2-0.2-0.3
				C273.6,225.7,273.7,225.8,273.8,225.8z M300.1,210.3C300.2,210.3,300.2,210.3,300.1,210.3c0.3-0.1,0.3-0.1,0.2-0.2
				C300.2,210.2,300.2,210.2,300.1,210.3z M289.3,219.2c0,0.1,0,0.1,0,0.2c0.2,0,0.1-0.1,0.1-0.2
				C289.4,219.2,289.4,219.2,289.3,219.2z M296.5,230.2C296.5,230.2,296.5,230.2,296.5,230.2c0,0.1-0.1,0.3,0.1,0.4
				C296.6,230.4,296.6,230.3,296.5,230.2z M281.4,217.3c0,0.1,0.1,0.2,0.1,0.3C281.5,217.4,281.5,217.4,281.4,217.3z M274.5,226.5
				c0,0.3,0.1,0.3,0.2,0.3c0,0,0,0,0,0C274.7,226.7,274.6,226.6,274.5,226.5z M281.8,217.6c0,0.1-0.1,0.3,0.2,0.3
				C282,217.9,282,217.7,281.8,217.6z M274.4,226.6c-0.1-0.1-0.1-0.2-0.2-0.3c0,0,0,0,0,0C274.2,226.4,274.1,226.6,274.4,226.6z
				 M298.5,223.2C298.5,223.2,298.6,223.2,298.5,223.2c0.1-0.1,0-0.2,0-0.3c0,0-0.1,0.1-0.1,0.1
				C298.4,223.1,298.5,223.2,298.5,223.2z M294.6,216.5c0.1-0.2,0-0.3,0-0.4C294.4,216.2,294.6,216.3,294.6,216.5z M281.3,218
				C281.3,218,281.3,218,281.3,218c0-0.2,0-0.3,0-0.5C281.2,217.6,281.3,217.8,281.3,218z M280,235.8c0,0.2,0.1,0.3,0.1,0.4
				c0,0,0,0,0.1,0C280.2,235.9,280.2,235.9,280,235.8z M279.8,224.4c-0.2,0-0.3,0.1-0.2,0.2C279.6,224.5,279.7,224.5,279.8,224.4z
				 M279.9,235.6c-0.1,0.3-0.1,0.3,0.1,0.3C279.9,235.8,279.9,235.7,279.9,235.6z M286.6,207.7C286.7,207.7,286.7,207.7,286.6,207.7
				c0.2-0.2,0.2-0.2,0.1-0.4C286.7,207.5,286.7,207.6,286.6,207.7z M293.8,223.2c0,0-0.1,0-0.1-0.1c0,0-0.1,0.1-0.1,0.1
				c0,0,0.1,0.1,0.1,0.1C293.7,223.3,293.8,223.2,293.8,223.2z M282.9,232c0.2-0.2,0.1-0.3,0-0.3c0,0,0,0-0.1,0
				C282.9,231.8,282.9,231.9,282.9,232z M303.9,222.8c0-0.1,0-0.3-0.2-0.2C303.7,222.6,303.7,222.8,303.9,222.8z M290.1,238.2
				C290,238.3,290,238.3,290.1,238.2c0.1,0.1,0.1,0.1,0.2,0.2c0-0.1,0-0.2,0-0.2C290.2,238.2,290.1,238.2,290.1,238.2z M300.5,233.1
				c-0.2,0.1-0.1,0.3-0.1,0.4c0,0,0,0,0.1,0C300.5,233.4,300.5,233.3,300.5,233.1z M299.2,223.7c0-0.1-0.1-0.2-0.1-0.2
				c0,0-0.1,0.1-0.1,0.1C299,223.7,299,223.8,299.2,223.7z M295.7,216.8C295.8,216.8,295.8,216.8,295.7,216.8c0.1-0.1,0.1-0.2,0-0.3
				c0,0,0,0-0.1,0C295.7,216.6,295.7,216.7,295.7,216.8z M293.7,224.2c0.1-0.1,0.2-0.1,0.2-0.2c0,0,0,0,0,0c-0.1,0-0.1,0-0.2,0
				C293.6,224,293.7,224.1,293.7,224.2z M290.6,233.4C290.6,233.4,290.6,233.4,290.6,233.4c-0.1,0-0.2,0-0.2,0c0,0.1,0,0.1,0.1,0.2
				C290.5,233.5,290.6,233.5,290.6,233.4z M281.1,218.3C281.2,218.3,281.2,218.3,281.1,218.3c0-0.1,0-0.2,0-0.4c0,0,0,0,0,0
				C281.1,218.1,281.1,218.2,281.1,218.3z M280.2,237.3C280.2,237.3,280.2,237.3,280.2,237.3c0-0.1-0.1-0.1-0.2-0.2c0,0-0.1,0-0.1,0
				c0,0,0.1,0.1,0.1,0.1C280.1,237.3,280.2,237.3,280.2,237.3z M280.8,234.7C280.8,234.8,280.8,234.8,280.8,234.7
				c0.1,0.2,0.3,0.3,0.4,0.4c0,0,0,0,0,0C281.1,235,281,234.9,280.8,234.7z M290,238.6C290,238.6,289.9,238.6,290,238.6
				c-0.1,0.1,0,0.2,0,0.4c0,0,0.1,0,0.1,0C290.1,238.8,290,238.7,290,238.6z M275,225.2c0.1,0.1,0.1,0.1,0.2,0.2
				C275.2,225.2,275.2,225.2,275,225.2z M279.6,224.8C279.6,224.8,279.6,224.8,279.6,224.8c0.3-0.2,0.3-0.2,0.2-0.3
				C279.7,224.6,279.6,224.7,279.6,224.8z M287.1,207.6C287.1,207.6,287.1,207.6,287.1,207.6c0.1-0.1,0.1-0.2,0-0.3c0,0,0,0-0.1,0
				C287,207.4,287,207.5,287.1,207.6z M295.4,233.2C295.4,233.1,295.4,233.1,295.4,233.2c-0.2,0.1-0.3,0.1-0.5,0.2c0,0,0,0,0,0.1
				C295.1,233.4,295.2,233.3,295.4,233.2z M301.2,232.8C301.2,232.8,301.2,232.8,301.2,232.8c-0.1,0.1-0.2,0.1-0.1,0.3
				C301.2,233,301.2,232.9,301.2,232.8z M290.9,241.5c0-0.2,0.1-0.4-0.1-0.6C290.8,241.2,290.9,241.3,290.9,241.5z M295.7,216.1
				C295.7,216.1,295.6,216.1,295.7,216.1c0,0.1,0,0.2,0,0.4C295.8,216.3,295.7,216.2,295.7,216.1z M304.1,221.7
				C304,221.7,304,221.7,304.1,221.7c-0.1,0-0.1,0-0.1,0.1c0,0.1,0.1,0.1,0.1,0.1c0,0,0,0,0,0C304.1,221.9,304.1,221.8,304.1,221.7z
				 M299.3,222.9c-0.2,0-0.2,0.1-0.1,0.2c0,0,0.1,0.1,0.1,0.1C299.3,223,299.3,223,299.3,222.9z M296.8,229.7
				C296.7,229.7,296.7,229.8,296.8,229.7c0,0.1,0,0.2,0.1,0.3c0,0,0,0,0.1-0.1C296.9,229.9,296.8,229.8,296.8,229.7z M287,207.9
				C287,207.9,287,207.9,287,207.9c-0.1,0.1-0.1,0.2-0.2,0.2c0,0,0,0,0,0c0,0,0.1-0.1,0.2-0.1C287.1,208.1,287,208,287,207.9z
				 M279.3,237.5C279.2,237.5,279.2,237.5,279.3,237.5c-0.1,0-0.3,0-0.2,0.2C279.1,237.7,279.2,237.6,279.3,237.5z M290.5,233.9
				C290.5,233.9,290.5,233.9,290.5,233.9c0.2-0.2,0.2-0.2,0.1-0.3C290.5,233.7,290.5,233.8,290.5,233.9z"/>
			<path fill="#F4EFEF" d="M294.8,211.3c0,0-0.1,0.1-0.1,0.1c0,0,0,0,0,0c-0.3-0.1-0.7-0.2-1-0.3c-0.1,0-0.1-0.1-0.2-0.1
				c0,0,0,0,0-0.1c0.3,0.1,0.7,0.2,1,0.3C294.6,211.2,294.7,211.3,294.8,211.3z"/>
			<path fill="#F4EFEF" d="M295.8,215.9c-0.1-0.1-0.2-0.2-0.3-0.3c0,0-0.1-0.1-0.1-0.2c0.2,0.1,0.5,0.3,0.7,0.5c0,0,0,0,0,0.1
				C295.9,216,295.9,216,295.8,215.9C295.8,216,295.8,215.9,295.8,215.9z"/>
			<path fill="#F4EFEF" d="M297.5,217.7C297.5,217.6,297.5,217.6,297.5,217.7c0.2,0.1,0.4,0.3,0.5,0.6c0,0,0,0,0,0
				C297.8,218.1,297.7,217.9,297.5,217.7z"/>
			<path fill="#F4EFEF" d="M291,221.2c0,0-0.1-0.1-0.2-0.2c-0.3-0.2-0.6-0.3-0.9-0.5c0.2,0.1,0.4,0.1,0.6,0.2
				C290.6,220.8,290.8,220.9,291,221.2C291,221.1,291,221.1,291,221.2C291,221.2,291,221.2,291,221.2z"/>
			<path fill="#F4EFEF" d="M280,216.5c0,0.2-0.1,0.4-0.4,0.4c-0.2,0-0.4-0.2-0.4-0.4c0-0.2,0.2-0.4,0.4-0.4
				C279.7,216.1,280,216.4,280,216.5z"/>
			<path fill="#F4EFEF" d="M283.4,213.8c-0.2,0-0.4-0.2-0.4-0.4c0-0.2,0.2-0.4,0.4-0.4c0.2,0,0.4,0.1,0.4,0.3
				C283.8,213.6,283.6,213.8,283.4,213.8z"/>
			<path fill="#F4EFEF" d="M277.8,220.8c0,0.2-0.1,0.4-0.3,0.4c-0.2,0-0.4-0.1-0.4-0.3c0-0.2,0.1-0.4,0.3-0.4
				C277.6,220.4,277.8,220.6,277.8,220.8z"/>
			<path fill="#F4EFEF" d="M299.6,217.9c0-0.2,0.1-0.4,0.3-0.4c0.2,0,0.4,0.2,0.4,0.3c0,0.2-0.1,0.4-0.3,0.4
				C299.8,218.3,299.6,218.1,299.6,217.9z M300.1,217.7c-0.2,0-0.4,0-0.4,0.1c0,0.1,0,0.2,0.1,0.3c0,0,0,0,0.1,0
				C299.8,217.8,299.8,217.8,300.1,217.7c-0.1,0.1-0.1,0.1-0.1,0.2c0,0,0,0,0,0C300,217.9,300.1,217.8,300.1,217.7z"/>
			<path fill="#F4EFEF" d="M287.8,212.2c-0.1-0.1-0.2-0.1-0.2-0.2c0-0.1-0.1-0.2,0.1-0.3c0.1,0,0.3,0,0.4,0.2
				C288.1,212,288,212.2,287.8,212.2c-0.1,0.2-0.4,0.1-0.4-0.1s0-0.4,0.1-0.5c0,0.2-0.2,0.4,0.1,0.5
				C287.6,212.2,287.7,212.2,287.8,212.2z"/>
			<path fill="#F4EFEF" d="M292.6,212.4c0,0.2-0.1,0.3-0.3,0.3c-0.2,0-0.3-0.1-0.4-0.3c0-0.2,0.1-0.3,0.3-0.4
				C292.4,212,292.6,212.2,292.6,212.4z"/>
			<path fill="#F4EFEF" d="M296.4,214.5c0-0.1,0-0.3,0.2-0.3c0.1-0.1,0.4,0.1,0.5,0.3c0,0.2-0.1,0.4-0.2,0.4
				C296.6,214.9,296.4,214.7,296.4,214.5z M296.7,214.7c0-0.2,0-0.3-0.3-0.2C296.6,214.6,296.6,214.6,296.7,214.7z"/>
			<path fill="#F4EFEF" d="M283.9,211.6c0.7-0.3,1.3-0.6,2-0.9c0,0,0,0.1,0,0.1C285.3,211.1,284.6,211.4,283.9,211.6
				C284,211.6,284,211.6,283.9,211.6z"/>
			<path fill="#F4EFEF" d="M287.3,210.6c0.5-0.1,1.1-0.2,1.6-0.3c0,0,0,0.1,0,0.1C288.4,210.6,287.9,210.6,287.3,210.6
				C287.3,210.7,287.3,210.6,287.3,210.6z"/>
			<path fill="#F4EFEF" d="M297.9,213.8c-0.3-0.3-0.7-0.5-1-0.8c0,0,0,0,0-0.1C297.3,213.2,297.7,213.4,297.9,213.8
				C297.9,213.7,297.9,213.8,297.9,213.8z"/>
			<path fill="#F4EFEF" d="M298.9,218.2c0.2-0.5,0.6-0.9,1.1-1.3C299.6,217.4,299.2,217.8,298.9,218.2z"/>
			<path fill="#F4EFEF" d="M280.5,213.7c-0.2,0.2-0.4,0.4-0.6,0.5c0,0,0,0,0,0C280.1,214,280.3,213.8,280.5,213.7
				C280.5,213.6,280.5,213.7,280.5,213.7z"/>
			<path fill="#F4EFEF" d="M294.6,211.4C294.6,211.4,294.6,211.4,294.6,211.4c0.2,0.1,0.4,0.2,0.5,0.4
				C294.9,211.7,294.7,211.6,294.6,211.4C294.6,211.4,294.6,211.4,294.6,211.4z"/>
			<path fill="#F4EFEF" d="M292.9,210.8c-0.2,0-0.4-0.1-0.6-0.1c0,0,0-0.1,0-0.1C292.5,210.6,292.8,210.7,292.9,210.8
				C293,210.8,293,210.8,292.9,210.8z"/>
			<path fill="#F4EFEF" d="M278.9,215.3c0.1-0.2,0.2-0.3,0.3-0.5c0,0,0,0,0,0C279.1,215,279,215.2,278.9,215.3z"/>
			<path fill="#F4EFEF" d="M291.8,210.6c-0.2,0-0.4-0.1-0.6-0.1c0,0,0,0,0-0.1C291.4,210.5,291.6,210.5,291.8,210.6
				C291.8,210.6,291.8,210.6,291.8,210.6z"/>
			<path fill="#F4EFEF" d="M296.3,212.5c-0.1-0.1-0.2-0.2-0.3-0.3c0,0,0,0,0,0C296.1,212.3,296.2,212.4,296.3,212.5
				C296.3,212.5,296.3,212.5,296.3,212.5z"/>
			<path fill="#F4EFEF" d="M288.2,223c0,0.1-0.1,0.2-0.1,0.2c-0.1,0.3-0.3,0.6-0.3,1c0,0.7,0.5,1.3,1.3,1.4c0.8,0.1,1.4-0.4,1.6-1.1
				c0.1-0.8-0.3-1.5-1-1.7c-0.4-0.1-0.8,0-1.2,0.1C288.5,222.9,288.4,222.9,288.2,223c0.4-0.5,1.2-0.6,1.8-0.3
				c0.7,0.3,1,1.1,0.8,1.8c-0.2,0.7-0.8,1.2-1.6,1.2c-0.8,0-1.4-0.5-1.5-1.2C287.6,223.8,287.8,223.2,288.2,223z"/>
			<path fill="#F4EFEF" d="M289.1,221.6c0,0.2-0.1,0.3-0.3,0.3c-0.2,0-0.3-0.1-0.3-0.3c0-0.2,0.1-0.3,0.3-0.3
				C288.9,221.3,289.1,221.4,289.1,221.6z"/>
			<path fill="#F4EFEF" d="M289.8,226.7c0,0.2-0.1,0.3-0.3,0.3c-0.2,0-0.3-0.1-0.3-0.3c0-0.2,0.1-0.3,0.3-0.3
				S289.8,226.5,289.8,226.7z"/>
			<path fill="#F4EFEF" d="M287,222.5c0-0.2,0.1-0.3,0.3-0.3c0.2,0,0.3,0.1,0.3,0.2c0,0.2-0.1,0.3-0.3,0.3
				C287.2,222.8,287,222.7,287,222.5z"/>
			<path fill="#F4EFEF" d="M291.8,223.5c0.1,0,0.3,0.1,0.3,0.2c0,0.2-0.1,0.3-0.3,0.4c-0.2,0-0.3-0.1-0.3-0.2
				C291.4,223.6,291.6,223.5,291.8,223.5z"/>
			<path fill="#F4EFEF" d="M287,224.5c0,0.2-0.1,0.3-0.2,0.3c-0.2,0-0.3-0.1-0.3-0.2c0-0.2,0.1-0.3,0.3-0.3
				C286.9,224.2,287,224.3,287,224.5z"/>
			<path fill="#F4EFEF" d="M287.7,226.4c-0.2,0-0.3-0.1-0.3-0.2c0-0.2,0.1-0.3,0.3-0.3c0.1,0,0.3,0.1,0.3,0.2
				C287.9,226.3,287.8,226.4,287.7,226.4z"/>
			<path fill="#F4EFEF" d="M291.6,225.6c0,0.1-0.1,0.3-0.3,0.3c-0.1,0-0.3-0.1-0.3-0.2c0-0.2,0.1-0.3,0.2-0.3
				C291.4,225.4,291.6,225.5,291.6,225.6z"/>
			<path fill="#F4EFEF" d="M290.7,221.8c0.2,0,0.3,0.1,0.3,0.2c0,0.2-0.1,0.3-0.2,0.3c-0.2,0-0.3-0.1-0.3-0.3
				C290.4,222,290.5,221.8,290.7,221.8z"/>
			<path fill="#F4EFEF" d="M291.2,221.1c0.2,0.1,0.4,0.3,0.7,0.4c0,0,0,0,0,0.1C291.6,221.4,291.3,221.3,291.2,221.1
				C291.1,221.1,291.1,221.1,291.2,221.1z"/>
			<path fill="#F4EFEF" d="M283.1,215.2c0.9-0.6,1.9-1.1,3-1.4C285,214.2,284,214.6,283.1,215.2z"/>
			<path fill="#F4EFEF" d="M297,216.8c-0.2,0-0.5-0.3-0.6-0.5C296.6,216.4,296.8,216.5,297,216.8z"/>
			<path fill="#F4EFEF" d="M280.4,217.8c-0.2,0.4-0.5,0.7-0.7,1.1c0,0,0,0-0.1,0C279.9,218.4,280.1,218.1,280.4,217.8
				C280.4,217.7,280.4,217.7,280.4,217.8z"/>
			<path fill="#F4EFEF" d="M281.2,217.2c-0.1,0.1-0.3,0.2-0.4,0.3c0,0,0,0,0,0c0.2-0.2,0.4-0.4,0.5-0.6c0,0,0,0,0,0
				C281.3,217,281.2,217.1,281.2,217.2L281.2,217.2z"/>
			<path fill="#F4EFEF" d="M281.8,216.4c0.1-0.1,0.2-0.2,0.4-0.3c0,0,0,0,0.1,0.1C282.1,216.2,282,216.3,281.8,216.4
				C281.9,216.4,281.8,216.4,281.8,216.4z"/>
			<path fill="#F4EFEF" d="M294.8,215.1c-0.2-0.1-0.4-0.3-0.5-0.4c0,0,0,0,0-0.1c0.1,0.1,0.2,0.1,0.2,0.2
				C294.6,215,294.7,215,294.8,215.1C294.8,215.1,294.8,215.1,294.8,215.1z"/>
			<path fill="#F4EFEF" d="M298.6,219.2c-0.1-0.2-0.2-0.4-0.3-0.5c0,0,0,0,0,0C298.4,218.8,298.5,219,298.6,219.2
				C298.6,219.2,298.6,219.2,298.6,219.2z"/>
			<path fill="#F4EFEF" d="M297.3,217.1c0.1,0.1,0.2,0.2,0.3,0.3c0,0,0,0,0,0C297.4,217.3,297.3,217.2,297.3,217.1
				C297.3,217.1,297.3,217.1,297.3,217.1z"/>
			<path fill="#F4EFEF" d="M287.3,213.5c0.2,0,0.3,0,0.5-0.1c0.1,0,0.2,0,0.3,0c0,0,0,0,0,0C287.9,213.5,287.6,213.5,287.3,213.5
				C287.3,213.5,287.3,213.5,287.3,213.5z"/>
			<path fill="#F4EFEF" d="M288.6,213.5c0.2,0,0.3,0,0.5,0c0,0,0,0,0,0.1C288.9,213.6,288.7,213.6,288.6,213.5
				C288.5,213.5,288.6,213.5,288.6,213.5z"/>
			<path fill="#F4EFEF" d="M301,227.1c0.2,0,0.4,0.1,0.4,0.3c0,0.2-0.1,0.4-0.3,0.4c-0.2,0-0.4-0.1-0.4-0.3
				C300.6,227.3,300.8,227.1,301,227.1z"/>
			<path fill="#F4EFEF" d="M285.2,220.9c-0.2-0.2-0.3-0.3-0.5-0.5c0,0,0,0,0,0C284.9,220.5,285,220.7,285.2,220.9L285.2,220.9z"/>
			<path fill="#F4EFEF" d="M283.6,230.9c0.3-0.9,0.9-1.6,1.6-2.2c-0.3,0.4-0.6,0.7-0.9,1C284.1,230.1,283.9,230.5,283.6,230.9z"/>
			<path fill="#F4EFEF" d="M283.6,230.7c0.2-0.9,0.7-1.6,1.4-2.1C284.3,229.1,283.9,229.9,283.6,230.7z"/>
			<path fill="#F4EFEF" d="M283.6,230c-0.1,0.2-0.1,0.4-0.2,0.6c0,0,0,0,0,0C283.4,230.4,283.4,230.2,283.6,230
				C283.5,230,283.5,230,283.6,230z"/>
			<path fill="#F4EFEF" d="M301.2,222.8c0-0.2,0.1-0.4,0.3-0.4c0.2,0,0.4,0.1,0.4,0.3c0,0.2-0.1,0.4-0.3,0.4
				C301.4,223.2,301.3,223,301.2,222.8z"/>
			<path fill="#F4EFEF" d="M295.3,228.2c0.3,0.3,0.5,0.5,0.8,0.8c0,0,0,0,0,0C295.8,228.8,295.5,228.5,295.3,228.2
				C295.2,228.3,295.2,228.3,295.3,228.2z"/>
			<path fill="#F4EFEF" d="M286.7,203.6c-0.2,0.3-0.3,0.6-0.5,0.9c0,0,0,0-0.1,0C286.3,204.2,286.5,203.9,286.7,203.6
				C286.6,203.6,286.7,203.6,286.7,203.6z"/>
			<path fill="#F4EFEF" d="M286.7,203.9c0,0,0,0.1,0.1,0.1c-0.1,0-0.1,0-0.1,0.1c-0.1,0.2-0.2,0.4-0.3,0.5c0,0,0,0,0,0
				C286.4,204.3,286.6,204.1,286.7,203.9z"/>
			<path fill="#F4EFEF" d="M298.1,223.1c-1.2,0.2-2.3,0.3-3.5,0.5c0,0,0,0,0-0.1C295.8,223.2,296.9,223.1,298.1,223.1
				C298.1,223,298.1,223.1,298.1,223.1z"/>
			<path fill="#F4EFEF" d="M294.9,223.2c0.3,0,0.5-0.1,0.8-0.1l0,0C295.4,223.1,295.2,223.2,294.9,223.2
				C294.9,223.2,294.9,223.2,294.9,223.2z"/>
			<path fill="#F4EFEF" d="M277.5,225.7c0,0.2-0.1,0.4-0.3,0.4c-0.2,0-0.4-0.1-0.4-0.3c0-0.2,0.1-0.4,0.3-0.4
				C277.3,225.4,277.5,225.5,277.5,225.7z"/>
			<path fill="#F4EFEF" d="M281.7,225.4c0.8-0.1,1.6-0.3,2.5-0.4c0,0,0,0,0,0.1C283.4,225.1,282.6,225.3,281.7,225.4L281.7,225.4z"
				/>
		</g>
	</g>
</g>
</svg>
